G04 EAGLE Gerber X2 export*
%TF.Part,Single*%
%TF.FileFunction,Copper,L1,Top,Mixed*%
%TF.FilePolarity,Positive*%
%TF.GenerationSoftware,Autodesk,EAGLE,8.6.1*%
%TF.CreationDate,2018-02-10T19:35:33Z*%
G75*
%MOMM*%
%FSLAX34Y34*%
%LPD*%
%AMOC8*
5,1,8,0,0,1.08239X$1,22.5*%
G01*
%ADD10C,0.050800*%
%ADD11C,1.320800*%
%ADD12P,1.429621X8X292.500000*%
%ADD13C,1.524000*%
%ADD14P,1.429621X8X202.500000*%
%ADD15P,1.429621X8X112.500000*%
%ADD16C,0.152400*%
%ADD17R,1.300000X1.300000*%

G36*
X650370Y341380D02*
X650370Y341380D01*
X650396Y341378D01*
X650543Y341400D01*
X650690Y341417D01*
X650715Y341425D01*
X650741Y341429D01*
X650879Y341484D01*
X651018Y341534D01*
X651040Y341548D01*
X651065Y341558D01*
X651186Y341643D01*
X651311Y341723D01*
X651329Y341742D01*
X651351Y341757D01*
X651450Y341867D01*
X651553Y341974D01*
X651567Y341996D01*
X651584Y342016D01*
X651656Y342146D01*
X651732Y342273D01*
X651740Y342298D01*
X651753Y342321D01*
X651793Y342464D01*
X651838Y342605D01*
X651840Y342631D01*
X651848Y342656D01*
X651867Y342900D01*
X651867Y350242D01*
X653058Y351433D01*
X658116Y351433D01*
X658142Y351436D01*
X658168Y351434D01*
X658315Y351456D01*
X658462Y351473D01*
X658487Y351481D01*
X658513Y351485D01*
X658651Y351540D01*
X658790Y351590D01*
X658812Y351604D01*
X658837Y351614D01*
X658958Y351699D01*
X659083Y351779D01*
X659101Y351798D01*
X659123Y351813D01*
X659222Y351923D01*
X659325Y352030D01*
X659339Y352052D01*
X659356Y352072D01*
X659428Y352202D01*
X659504Y352329D01*
X659512Y352354D01*
X659525Y352377D01*
X659565Y352520D01*
X659610Y352661D01*
X659612Y352687D01*
X659620Y352712D01*
X659639Y352956D01*
X659639Y663044D01*
X659636Y663070D01*
X659638Y663096D01*
X659616Y663243D01*
X659599Y663390D01*
X659591Y663415D01*
X659587Y663441D01*
X659532Y663579D01*
X659482Y663718D01*
X659468Y663740D01*
X659458Y663765D01*
X659373Y663886D01*
X659293Y664011D01*
X659274Y664029D01*
X659259Y664051D01*
X659149Y664150D01*
X659042Y664253D01*
X659020Y664267D01*
X659000Y664284D01*
X658870Y664356D01*
X658743Y664432D01*
X658718Y664440D01*
X658695Y664453D01*
X658552Y664493D01*
X658411Y664538D01*
X658385Y664540D01*
X658360Y664548D01*
X658116Y664567D01*
X653058Y664567D01*
X651867Y665758D01*
X651867Y673100D01*
X651864Y673126D01*
X651866Y673152D01*
X651844Y673299D01*
X651827Y673446D01*
X651819Y673471D01*
X651815Y673497D01*
X651760Y673635D01*
X651710Y673774D01*
X651696Y673796D01*
X651686Y673821D01*
X651601Y673942D01*
X651521Y674067D01*
X651502Y674085D01*
X651487Y674107D01*
X651377Y674206D01*
X651270Y674309D01*
X651248Y674323D01*
X651228Y674340D01*
X651098Y674412D01*
X650971Y674488D01*
X650946Y674496D01*
X650923Y674509D01*
X650780Y674549D01*
X650639Y674594D01*
X650613Y674596D01*
X650588Y674604D01*
X650344Y674623D01*
X365656Y674623D01*
X365630Y674620D01*
X365604Y674622D01*
X365457Y674600D01*
X365310Y674583D01*
X365285Y674575D01*
X365259Y674571D01*
X365121Y674516D01*
X364982Y674466D01*
X364960Y674452D01*
X364935Y674442D01*
X364814Y674357D01*
X364689Y674277D01*
X364671Y674258D01*
X364649Y674243D01*
X364550Y674133D01*
X364447Y674026D01*
X364433Y674004D01*
X364416Y673984D01*
X364344Y673854D01*
X364268Y673727D01*
X364260Y673702D01*
X364247Y673679D01*
X364207Y673536D01*
X364162Y673395D01*
X364160Y673369D01*
X364152Y673344D01*
X364133Y673100D01*
X364133Y665758D01*
X362942Y664567D01*
X355600Y664567D01*
X355574Y664564D01*
X355548Y664566D01*
X355401Y664544D01*
X355254Y664527D01*
X355229Y664519D01*
X355203Y664515D01*
X355065Y664460D01*
X354926Y664410D01*
X354904Y664396D01*
X354879Y664386D01*
X354758Y664301D01*
X354633Y664221D01*
X354615Y664202D01*
X354593Y664187D01*
X354494Y664077D01*
X354391Y663970D01*
X354377Y663948D01*
X354360Y663928D01*
X354288Y663798D01*
X354212Y663671D01*
X354204Y663646D01*
X354191Y663623D01*
X354151Y663480D01*
X354106Y663339D01*
X354104Y663313D01*
X354096Y663288D01*
X354077Y663044D01*
X354077Y352956D01*
X354080Y352930D01*
X354078Y352904D01*
X354100Y352757D01*
X354117Y352610D01*
X354125Y352585D01*
X354129Y352559D01*
X354184Y352421D01*
X354234Y352282D01*
X354248Y352260D01*
X354258Y352235D01*
X354343Y352114D01*
X354423Y351989D01*
X354442Y351971D01*
X354457Y351949D01*
X354567Y351850D01*
X354674Y351747D01*
X354696Y351733D01*
X354716Y351716D01*
X354846Y351644D01*
X354973Y351568D01*
X354998Y351560D01*
X355021Y351547D01*
X355164Y351507D01*
X355305Y351462D01*
X355331Y351460D01*
X355356Y351452D01*
X355600Y351433D01*
X362942Y351433D01*
X364133Y350242D01*
X364133Y342900D01*
X364136Y342874D01*
X364134Y342848D01*
X364156Y342701D01*
X364173Y342554D01*
X364181Y342529D01*
X364185Y342503D01*
X364240Y342365D01*
X364290Y342226D01*
X364304Y342204D01*
X364314Y342179D01*
X364399Y342058D01*
X364479Y341933D01*
X364498Y341915D01*
X364513Y341893D01*
X364623Y341794D01*
X364730Y341691D01*
X364752Y341677D01*
X364772Y341660D01*
X364902Y341588D01*
X365029Y341512D01*
X365054Y341504D01*
X365077Y341491D01*
X365220Y341451D01*
X365361Y341406D01*
X365387Y341404D01*
X365412Y341396D01*
X365656Y341377D01*
X650344Y341377D01*
X650370Y341380D01*
G37*
%LPC*%
G36*
X454926Y361949D02*
X454926Y361949D01*
X450725Y363690D01*
X447510Y366905D01*
X445769Y371106D01*
X445769Y390894D01*
X447510Y395095D01*
X450725Y398310D01*
X453980Y399659D01*
X454024Y399683D01*
X454071Y399700D01*
X454176Y399768D01*
X454285Y399828D01*
X454322Y399862D01*
X454364Y399889D01*
X454451Y399979D01*
X454543Y400062D01*
X454571Y400104D01*
X454606Y400140D01*
X454670Y400247D01*
X454741Y400349D01*
X454759Y400396D01*
X454785Y400439D01*
X454823Y400557D01*
X454869Y400673D01*
X454876Y400723D01*
X454891Y400771D01*
X454901Y400895D01*
X454919Y401018D01*
X454915Y401068D01*
X454919Y401118D01*
X454901Y401241D01*
X454891Y401365D01*
X454875Y401413D01*
X454868Y401463D01*
X454822Y401578D01*
X454783Y401697D01*
X454757Y401740D01*
X454739Y401787D01*
X454668Y401889D01*
X454604Y401995D01*
X454569Y402032D01*
X454540Y402073D01*
X454448Y402156D01*
X454361Y402245D01*
X454319Y402273D01*
X454281Y402306D01*
X454172Y402366D01*
X454068Y402434D01*
X454020Y402451D01*
X453976Y402475D01*
X453856Y402509D01*
X453739Y402550D01*
X453689Y402556D01*
X453641Y402570D01*
X453397Y402589D01*
X405249Y402589D01*
X405123Y402575D01*
X404997Y402568D01*
X404951Y402555D01*
X404903Y402549D01*
X404784Y402507D01*
X404662Y402472D01*
X404620Y402448D01*
X404575Y402432D01*
X404468Y402363D01*
X404358Y402302D01*
X404312Y402262D01*
X404282Y402243D01*
X404248Y402208D01*
X404172Y402143D01*
X398014Y395985D01*
X389386Y395985D01*
X383285Y402086D01*
X383285Y407952D01*
X383266Y408117D01*
X383247Y408293D01*
X383246Y408296D01*
X383245Y408298D01*
X383188Y408458D01*
X383130Y408622D01*
X383129Y408624D01*
X383128Y408626D01*
X383036Y408769D01*
X382942Y408915D01*
X382940Y408917D01*
X382939Y408919D01*
X382815Y409038D01*
X382692Y409158D01*
X382690Y409160D01*
X382688Y409161D01*
X382679Y409167D01*
X382487Y409291D01*
X365645Y418408D01*
X365570Y418438D01*
X365500Y418477D01*
X365409Y418502D01*
X365322Y418537D01*
X365242Y418550D01*
X365164Y418572D01*
X365026Y418583D01*
X364977Y418590D01*
X364955Y418588D01*
X364920Y418591D01*
X364856Y418591D01*
X364483Y418965D01*
X364406Y419026D01*
X364336Y419094D01*
X364248Y419151D01*
X364210Y419182D01*
X364179Y419196D01*
X364131Y419228D01*
X363666Y419479D01*
X363647Y419541D01*
X363616Y419615D01*
X363593Y419693D01*
X363547Y419775D01*
X363510Y419861D01*
X363462Y419926D01*
X363423Y419997D01*
X363333Y420102D01*
X363304Y420142D01*
X363287Y420157D01*
X363264Y420183D01*
X363219Y420228D01*
X363219Y420757D01*
X363208Y420854D01*
X363207Y420952D01*
X363185Y421055D01*
X363179Y421103D01*
X363168Y421135D01*
X363156Y421192D01*
X363005Y421698D01*
X363036Y421755D01*
X363066Y421830D01*
X363105Y421900D01*
X363130Y421991D01*
X363165Y422078D01*
X363178Y422158D01*
X363200Y422236D01*
X363211Y422374D01*
X363218Y422422D01*
X363216Y422445D01*
X363219Y422480D01*
X363219Y637682D01*
X388224Y662687D01*
X450992Y662687D01*
X461213Y652465D01*
X461312Y652386D01*
X461406Y652302D01*
X461449Y652278D01*
X461486Y652248D01*
X461601Y652194D01*
X461711Y652133D01*
X461758Y652120D01*
X461802Y652099D01*
X461925Y652073D01*
X462047Y652038D01*
X462108Y652033D01*
X462142Y652026D01*
X462190Y652027D01*
X462291Y652019D01*
X506538Y652019D01*
X506583Y652024D01*
X506673Y652025D01*
X507759Y652122D01*
X507795Y652111D01*
X508570Y651336D01*
X508606Y651308D01*
X508670Y651245D01*
X509506Y650546D01*
X509525Y650513D01*
X509525Y649416D01*
X509530Y649371D01*
X509531Y649281D01*
X509752Y646803D01*
X509779Y646672D01*
X509799Y646541D01*
X509814Y646502D01*
X509823Y646461D01*
X509878Y646341D01*
X509927Y646217D01*
X509951Y646183D01*
X509969Y646145D01*
X510051Y646040D01*
X510126Y645931D01*
X510157Y645903D01*
X510183Y645870D01*
X510286Y645787D01*
X510385Y645698D01*
X510422Y645677D01*
X510454Y645651D01*
X510574Y645593D01*
X510690Y645529D01*
X510730Y645518D01*
X510768Y645500D01*
X510898Y645470D01*
X511025Y645434D01*
X511077Y645430D01*
X511108Y645423D01*
X511158Y645424D01*
X511269Y645415D01*
X512314Y645415D01*
X518415Y639314D01*
X518415Y639064D01*
X518418Y639038D01*
X518416Y639012D01*
X518438Y638865D01*
X518455Y638718D01*
X518463Y638693D01*
X518467Y638667D01*
X518522Y638529D01*
X518572Y638390D01*
X518586Y638368D01*
X518596Y638343D01*
X518681Y638222D01*
X518761Y638097D01*
X518780Y638079D01*
X518795Y638057D01*
X518905Y637958D01*
X519012Y637855D01*
X519034Y637841D01*
X519054Y637824D01*
X519184Y637752D01*
X519311Y637676D01*
X519336Y637668D01*
X519359Y637655D01*
X519502Y637615D01*
X519643Y637570D01*
X519669Y637568D01*
X519694Y637560D01*
X519938Y637541D01*
X522112Y637541D01*
X552904Y606748D01*
X552964Y606701D01*
X553017Y606646D01*
X553100Y606593D01*
X553177Y606532D01*
X553246Y606499D01*
X553310Y606458D01*
X553403Y606425D01*
X553492Y606383D01*
X553567Y606367D01*
X553639Y606341D01*
X553737Y606330D01*
X553833Y606309D01*
X553909Y606311D01*
X553985Y606302D01*
X554083Y606314D01*
X554181Y606315D01*
X554255Y606334D01*
X554331Y606343D01*
X554473Y606389D01*
X554519Y606400D01*
X554536Y606409D01*
X554564Y606418D01*
X556728Y607315D01*
X560872Y607315D01*
X564700Y605729D01*
X567629Y602800D01*
X569215Y598972D01*
X569215Y594828D01*
X567629Y591000D01*
X564773Y588144D01*
X564756Y588123D01*
X564736Y588106D01*
X564648Y587987D01*
X564556Y587871D01*
X564545Y587847D01*
X564529Y587826D01*
X564470Y587690D01*
X564407Y587556D01*
X564402Y587530D01*
X564391Y587506D01*
X564365Y587360D01*
X564334Y587215D01*
X564334Y587189D01*
X564329Y587163D01*
X564337Y587015D01*
X564340Y586867D01*
X564346Y586841D01*
X564347Y586815D01*
X564389Y586672D01*
X564425Y586529D01*
X564437Y586505D01*
X564444Y586480D01*
X564516Y586351D01*
X564584Y586219D01*
X564601Y586199D01*
X564614Y586176D01*
X564773Y585990D01*
X575005Y575757D01*
X575104Y575678D01*
X575198Y575594D01*
X575241Y575570D01*
X575278Y575540D01*
X575393Y575486D01*
X575503Y575425D01*
X575550Y575412D01*
X575594Y575391D01*
X575717Y575365D01*
X575839Y575330D01*
X575900Y575325D01*
X575934Y575318D01*
X575982Y575319D01*
X576083Y575311D01*
X600083Y575311D01*
X600183Y575322D01*
X600283Y575324D01*
X600356Y575342D01*
X600429Y575351D01*
X600524Y575384D01*
X600621Y575409D01*
X600688Y575443D01*
X600758Y575468D01*
X600842Y575523D01*
X600931Y575569D01*
X600988Y575617D01*
X601050Y575657D01*
X601120Y575729D01*
X601197Y575794D01*
X601241Y575854D01*
X601293Y575908D01*
X601344Y575994D01*
X601404Y576075D01*
X601433Y576143D01*
X601471Y576207D01*
X601502Y576303D01*
X601542Y576395D01*
X601555Y576468D01*
X601578Y576539D01*
X601586Y576639D01*
X601603Y576738D01*
X601600Y576812D01*
X601606Y576886D01*
X601591Y576986D01*
X601585Y577086D01*
X601565Y577157D01*
X601554Y577231D01*
X601517Y577324D01*
X601489Y577421D01*
X601453Y577486D01*
X601425Y577555D01*
X601368Y577637D01*
X601319Y577725D01*
X601254Y577801D01*
X601226Y577841D01*
X601200Y577865D01*
X601160Y577911D01*
X599185Y579886D01*
X599185Y588514D01*
X605286Y594615D01*
X605536Y594615D01*
X605562Y594618D01*
X605588Y594616D01*
X605735Y594638D01*
X605882Y594655D01*
X605907Y594663D01*
X605933Y594667D01*
X606071Y594722D01*
X606210Y594772D01*
X606232Y594786D01*
X606257Y594796D01*
X606378Y594881D01*
X606503Y594961D01*
X606521Y594980D01*
X606543Y594995D01*
X606642Y595105D01*
X606745Y595212D01*
X606759Y595234D01*
X606776Y595254D01*
X606848Y595384D01*
X606924Y595511D01*
X606932Y595536D01*
X606945Y595559D01*
X606985Y595702D01*
X607030Y595843D01*
X607032Y595869D01*
X607040Y595894D01*
X607059Y596138D01*
X607059Y623062D01*
X607056Y623088D01*
X607058Y623114D01*
X607036Y623261D01*
X607019Y623408D01*
X607011Y623433D01*
X607007Y623459D01*
X606952Y623597D01*
X606902Y623736D01*
X606888Y623758D01*
X606878Y623783D01*
X606793Y623904D01*
X606713Y624029D01*
X606694Y624047D01*
X606679Y624069D01*
X606569Y624168D01*
X606462Y624271D01*
X606440Y624285D01*
X606420Y624302D01*
X606290Y624374D01*
X606163Y624450D01*
X606138Y624458D01*
X606115Y624471D01*
X605972Y624511D01*
X605831Y624556D01*
X605805Y624558D01*
X605780Y624566D01*
X605536Y624585D01*
X605286Y624585D01*
X599185Y630686D01*
X599185Y639314D01*
X605286Y645415D01*
X613914Y645415D01*
X620015Y639314D01*
X620015Y630686D01*
X613880Y624552D01*
X613826Y624545D01*
X613801Y624537D01*
X613775Y624533D01*
X613637Y624478D01*
X613498Y624428D01*
X613476Y624414D01*
X613451Y624404D01*
X613330Y624319D01*
X613205Y624239D01*
X613187Y624220D01*
X613165Y624205D01*
X613066Y624095D01*
X612963Y623988D01*
X612949Y623966D01*
X612932Y623946D01*
X612860Y623816D01*
X612784Y623689D01*
X612776Y623664D01*
X612763Y623641D01*
X612723Y623498D01*
X612678Y623357D01*
X612676Y623331D01*
X612668Y623306D01*
X612649Y623062D01*
X612649Y596138D01*
X612652Y596112D01*
X612650Y596086D01*
X612672Y595939D01*
X612689Y595792D01*
X612697Y595767D01*
X612701Y595741D01*
X612756Y595603D01*
X612806Y595464D01*
X612820Y595442D01*
X612830Y595417D01*
X612915Y595296D01*
X612995Y595171D01*
X613014Y595153D01*
X613029Y595131D01*
X613139Y595032D01*
X613246Y594929D01*
X613268Y594915D01*
X613288Y594898D01*
X613418Y594826D01*
X613545Y594750D01*
X613570Y594742D01*
X613593Y594729D01*
X613736Y594689D01*
X613877Y594644D01*
X613886Y594643D01*
X620015Y588514D01*
X620015Y579886D01*
X616081Y575952D01*
X616064Y575931D01*
X616044Y575914D01*
X615956Y575795D01*
X615864Y575679D01*
X615853Y575655D01*
X615837Y575634D01*
X615778Y575498D01*
X615715Y575364D01*
X615710Y575338D01*
X615699Y575314D01*
X615673Y575168D01*
X615642Y575023D01*
X615642Y574997D01*
X615637Y574971D01*
X615645Y574823D01*
X615648Y574675D01*
X615654Y574649D01*
X615655Y574623D01*
X615696Y574481D01*
X615733Y574337D01*
X615745Y574313D01*
X615752Y574288D01*
X615824Y574159D01*
X615892Y574027D01*
X615909Y574007D01*
X615922Y573984D01*
X616081Y573798D01*
X616651Y573227D01*
X625095Y564784D01*
X625095Y553578D01*
X616346Y544829D01*
X570564Y544829D01*
X570488Y544821D01*
X570412Y544822D01*
X570316Y544801D01*
X570218Y544789D01*
X570146Y544764D01*
X570071Y544747D01*
X569983Y544705D01*
X569890Y544672D01*
X569826Y544630D01*
X569757Y544598D01*
X569680Y544536D01*
X569597Y544483D01*
X569544Y544428D01*
X569484Y544380D01*
X569423Y544303D01*
X569355Y544232D01*
X569316Y544167D01*
X569268Y544107D01*
X569200Y543973D01*
X569176Y543933D01*
X569170Y543915D01*
X569157Y543889D01*
X567629Y540200D01*
X564700Y537271D01*
X560872Y535685D01*
X556728Y535685D01*
X552900Y537271D01*
X549971Y540200D01*
X548385Y544028D01*
X548385Y548172D01*
X549971Y552000D01*
X552900Y554929D01*
X556728Y556515D01*
X560872Y556515D01*
X564700Y554929D01*
X567629Y552000D01*
X567894Y551359D01*
X567932Y551292D01*
X567960Y551221D01*
X568016Y551141D01*
X568064Y551054D01*
X568115Y550998D01*
X568159Y550935D01*
X568232Y550869D01*
X568298Y550796D01*
X568361Y550753D01*
X568418Y550702D01*
X568504Y550654D01*
X568585Y550598D01*
X568656Y550570D01*
X568723Y550533D01*
X568817Y550506D01*
X568909Y550470D01*
X568984Y550459D01*
X569058Y550438D01*
X569207Y550426D01*
X569254Y550419D01*
X569273Y550421D01*
X569302Y550419D01*
X599575Y550419D01*
X599675Y550430D01*
X599775Y550432D01*
X599848Y550450D01*
X599921Y550459D01*
X600016Y550492D01*
X600113Y550517D01*
X600180Y550551D01*
X600250Y550576D01*
X600334Y550631D01*
X600423Y550677D01*
X600480Y550725D01*
X600542Y550765D01*
X600612Y550837D01*
X600689Y550902D01*
X600733Y550962D01*
X600785Y551016D01*
X600836Y551102D01*
X600896Y551183D01*
X600925Y551251D01*
X600963Y551315D01*
X600994Y551411D01*
X601034Y551503D01*
X601047Y551576D01*
X601070Y551647D01*
X601078Y551747D01*
X601095Y551846D01*
X601092Y551920D01*
X601098Y551994D01*
X601083Y552094D01*
X601077Y552194D01*
X601057Y552265D01*
X601046Y552339D01*
X601009Y552432D01*
X600981Y552529D01*
X600945Y552594D01*
X600917Y552663D01*
X600860Y552745D01*
X600811Y552833D01*
X600746Y552909D01*
X600718Y552949D01*
X600692Y552973D01*
X600652Y553019D01*
X599185Y554486D01*
X599185Y555752D01*
X599182Y555778D01*
X599184Y555804D01*
X599162Y555951D01*
X599145Y556098D01*
X599137Y556123D01*
X599133Y556149D01*
X599078Y556287D01*
X599028Y556426D01*
X599014Y556448D01*
X599004Y556473D01*
X598919Y556594D01*
X598839Y556719D01*
X598820Y556737D01*
X598805Y556759D01*
X598695Y556858D01*
X598588Y556961D01*
X598566Y556975D01*
X598546Y556992D01*
X598416Y557064D01*
X598289Y557140D01*
X598264Y557148D01*
X598241Y557161D01*
X598098Y557201D01*
X597957Y557246D01*
X597931Y557248D01*
X597906Y557256D01*
X597662Y557275D01*
X569580Y557275D01*
X565055Y561800D01*
X564995Y561848D01*
X564942Y561903D01*
X564859Y561956D01*
X564782Y562017D01*
X564713Y562050D01*
X564649Y562091D01*
X564556Y562124D01*
X564467Y562166D01*
X564393Y562182D01*
X564320Y562208D01*
X564222Y562219D01*
X564126Y562239D01*
X564050Y562238D01*
X563974Y562247D01*
X563876Y562235D01*
X563778Y562233D01*
X563704Y562215D01*
X563628Y562206D01*
X563486Y562160D01*
X563440Y562148D01*
X563423Y562140D01*
X563395Y562131D01*
X560872Y561085D01*
X556728Y561085D01*
X554744Y561907D01*
X554670Y561928D01*
X554600Y561959D01*
X554503Y561976D01*
X554408Y562003D01*
X554332Y562007D01*
X554257Y562020D01*
X554159Y562015D01*
X554060Y562020D01*
X553985Y562006D01*
X553909Y562002D01*
X553814Y561975D01*
X553718Y561957D01*
X553647Y561927D01*
X553574Y561906D01*
X553488Y561858D01*
X553398Y561819D01*
X553337Y561773D01*
X553270Y561736D01*
X553156Y561639D01*
X553118Y561611D01*
X553106Y561596D01*
X553084Y561577D01*
X511749Y520243D01*
X511670Y520144D01*
X511586Y520050D01*
X511562Y520007D01*
X511532Y519970D01*
X511478Y519855D01*
X511417Y519745D01*
X511404Y519698D01*
X511383Y519654D01*
X511357Y519531D01*
X511322Y519409D01*
X511317Y519348D01*
X511310Y519314D01*
X511311Y519266D01*
X511303Y519165D01*
X511303Y481838D01*
X511306Y481812D01*
X511304Y481786D01*
X511326Y481639D01*
X511343Y481492D01*
X511351Y481467D01*
X511355Y481441D01*
X511410Y481303D01*
X511460Y481164D01*
X511474Y481142D01*
X511484Y481117D01*
X511569Y480996D01*
X511649Y480871D01*
X511668Y480853D01*
X511683Y480831D01*
X511793Y480732D01*
X511900Y480629D01*
X511922Y480615D01*
X511942Y480598D01*
X512072Y480526D01*
X512149Y480480D01*
X518415Y474214D01*
X518415Y465586D01*
X512314Y459485D01*
X503686Y459485D01*
X497585Y465586D01*
X497585Y474214D01*
X503686Y480315D01*
X504190Y480315D01*
X504216Y480318D01*
X504242Y480316D01*
X504389Y480338D01*
X504536Y480355D01*
X504561Y480363D01*
X504587Y480367D01*
X504725Y480422D01*
X504864Y480472D01*
X504886Y480486D01*
X504911Y480496D01*
X505032Y480581D01*
X505157Y480661D01*
X505175Y480680D01*
X505197Y480695D01*
X505296Y480805D01*
X505399Y480912D01*
X505413Y480934D01*
X505430Y480954D01*
X505502Y481084D01*
X505578Y481211D01*
X505586Y481236D01*
X505599Y481259D01*
X505639Y481401D01*
X505684Y481543D01*
X505686Y481569D01*
X505694Y481594D01*
X505713Y481838D01*
X505713Y522112D01*
X549026Y565424D01*
X549074Y565484D01*
X549128Y565537D01*
X549181Y565620D01*
X549243Y565697D01*
X549275Y565766D01*
X549317Y565831D01*
X549350Y565924D01*
X549392Y566012D01*
X549408Y566087D01*
X549433Y566159D01*
X549444Y566257D01*
X549465Y566353D01*
X549464Y566429D01*
X549472Y566506D01*
X549461Y566603D01*
X549459Y566702D01*
X549440Y566776D01*
X549431Y566852D01*
X549386Y566994D01*
X549374Y567040D01*
X549365Y567057D01*
X549356Y567084D01*
X548385Y569428D01*
X548385Y573572D01*
X549971Y577400D01*
X550360Y577789D01*
X550423Y577867D01*
X550492Y577940D01*
X550531Y578004D01*
X550577Y578062D01*
X550620Y578153D01*
X550671Y578239D01*
X550694Y578310D01*
X550726Y578377D01*
X550747Y578475D01*
X550778Y578571D01*
X550784Y578645D01*
X550799Y578718D01*
X550797Y578818D01*
X550806Y578918D01*
X550794Y578992D01*
X550793Y579066D01*
X550769Y579163D01*
X550754Y579263D01*
X550726Y579332D01*
X550708Y579404D01*
X550662Y579493D01*
X550625Y579587D01*
X550583Y579648D01*
X550549Y579714D01*
X550483Y579791D01*
X550426Y579873D01*
X550371Y579923D01*
X550323Y579979D01*
X550242Y580039D01*
X550167Y580106D01*
X550102Y580142D01*
X550042Y580187D01*
X549950Y580226D01*
X549862Y580275D01*
X549791Y580295D01*
X549722Y580325D01*
X549624Y580342D01*
X549527Y580370D01*
X549427Y580378D01*
X549379Y580386D01*
X549344Y580384D01*
X549283Y580389D01*
X492117Y580389D01*
X492017Y580378D01*
X491917Y580376D01*
X491844Y580358D01*
X491771Y580349D01*
X491676Y580316D01*
X491579Y580291D01*
X491513Y580257D01*
X491443Y580232D01*
X491358Y580177D01*
X491269Y580131D01*
X491212Y580083D01*
X491150Y580043D01*
X491080Y579971D01*
X491003Y579906D01*
X490959Y579846D01*
X490908Y579792D01*
X490856Y579706D01*
X490796Y579625D01*
X490767Y579557D01*
X490729Y579493D01*
X490698Y579398D01*
X490658Y579305D01*
X490645Y579232D01*
X490622Y579161D01*
X490614Y579061D01*
X490597Y578962D01*
X490600Y578888D01*
X490594Y578814D01*
X490609Y578715D01*
X490615Y578614D01*
X490635Y578543D01*
X490646Y578469D01*
X490683Y578376D01*
X490711Y578279D01*
X490747Y578214D01*
X490775Y578145D01*
X490832Y578063D01*
X490881Y577975D01*
X490946Y577899D01*
X490974Y577859D01*
X491000Y577835D01*
X491040Y577789D01*
X491429Y577400D01*
X493015Y573572D01*
X493015Y569428D01*
X491429Y565600D01*
X488500Y562671D01*
X484672Y561085D01*
X480528Y561085D01*
X476700Y562671D01*
X473771Y565600D01*
X472185Y569428D01*
X472185Y573572D01*
X473771Y577400D01*
X476754Y580383D01*
X476771Y580404D01*
X476791Y580421D01*
X476879Y580540D01*
X476971Y580656D01*
X476982Y580680D01*
X476998Y580701D01*
X477057Y580837D01*
X477120Y580971D01*
X477125Y580997D01*
X477136Y581021D01*
X477162Y581167D01*
X477193Y581312D01*
X477193Y581338D01*
X477198Y581364D01*
X477190Y581512D01*
X477187Y581660D01*
X477181Y581686D01*
X477180Y581712D01*
X477139Y581854D01*
X477102Y581998D01*
X477090Y582022D01*
X477083Y582047D01*
X477011Y582176D01*
X476943Y582308D01*
X476926Y582328D01*
X476913Y582351D01*
X476754Y582537D01*
X443789Y615503D01*
X441705Y617586D01*
X441705Y623867D01*
X441697Y623943D01*
X441698Y624019D01*
X441677Y624116D01*
X441665Y624213D01*
X441640Y624285D01*
X441623Y624360D01*
X441581Y624449D01*
X441548Y624541D01*
X441506Y624606D01*
X441474Y624675D01*
X441412Y624751D01*
X441359Y624834D01*
X441304Y624887D01*
X441256Y624947D01*
X441179Y625008D01*
X441108Y625076D01*
X441043Y625116D01*
X440983Y625163D01*
X440850Y625231D01*
X440809Y625255D01*
X440791Y625261D01*
X440765Y625274D01*
X438600Y626171D01*
X435671Y629100D01*
X434880Y631011D01*
X434842Y631078D01*
X434814Y631149D01*
X434758Y631230D01*
X434710Y631316D01*
X434659Y631372D01*
X434615Y631435D01*
X434542Y631501D01*
X434476Y631574D01*
X434413Y631617D01*
X434356Y631668D01*
X434270Y631716D01*
X434189Y631772D01*
X434118Y631800D01*
X434051Y631837D01*
X433957Y631864D01*
X433865Y631900D01*
X433790Y631911D01*
X433716Y631932D01*
X433567Y631944D01*
X433520Y631951D01*
X433501Y631949D01*
X433472Y631951D01*
X405638Y631951D01*
X405612Y631948D01*
X405586Y631950D01*
X405439Y631928D01*
X405292Y631911D01*
X405267Y631903D01*
X405241Y631899D01*
X405103Y631844D01*
X404964Y631794D01*
X404942Y631780D01*
X404917Y631770D01*
X404796Y631685D01*
X404671Y631605D01*
X404653Y631586D01*
X404631Y631571D01*
X404532Y631461D01*
X404429Y631354D01*
X404415Y631332D01*
X404398Y631312D01*
X404326Y631182D01*
X404250Y631055D01*
X404242Y631030D01*
X404229Y631007D01*
X404189Y630864D01*
X404144Y630723D01*
X404143Y630714D01*
X398014Y624585D01*
X389386Y624585D01*
X383285Y630686D01*
X383285Y639314D01*
X389386Y645415D01*
X398014Y645415D01*
X404115Y639314D01*
X404115Y639064D01*
X404118Y639038D01*
X404116Y639012D01*
X404138Y638865D01*
X404155Y638718D01*
X404163Y638693D01*
X404167Y638667D01*
X404222Y638529D01*
X404272Y638390D01*
X404286Y638368D01*
X404296Y638343D01*
X404381Y638222D01*
X404461Y638097D01*
X404480Y638079D01*
X404495Y638057D01*
X404605Y637958D01*
X404712Y637855D01*
X404734Y637841D01*
X404754Y637824D01*
X404884Y637752D01*
X405011Y637676D01*
X405036Y637668D01*
X405059Y637655D01*
X405202Y637615D01*
X405343Y637570D01*
X405369Y637568D01*
X405394Y637560D01*
X405638Y637541D01*
X433262Y637541D01*
X433338Y637549D01*
X433414Y637548D01*
X433510Y637569D01*
X433608Y637581D01*
X433680Y637606D01*
X433755Y637623D01*
X433843Y637665D01*
X433936Y637698D01*
X434000Y637740D01*
X434069Y637772D01*
X434146Y637834D01*
X434229Y637887D01*
X434282Y637942D01*
X434342Y637990D01*
X434403Y638067D01*
X434471Y638138D01*
X434510Y638203D01*
X434558Y638263D01*
X434626Y638397D01*
X434650Y638437D01*
X434656Y638455D01*
X434669Y638481D01*
X435671Y640900D01*
X438600Y643829D01*
X442428Y645415D01*
X446572Y645415D01*
X450400Y643829D01*
X453329Y640900D01*
X454915Y637072D01*
X454915Y632928D01*
X453329Y629100D01*
X450400Y626171D01*
X448235Y625274D01*
X448168Y625237D01*
X448097Y625209D01*
X448016Y625153D01*
X447930Y625105D01*
X447874Y625054D01*
X447811Y625010D01*
X447745Y624937D01*
X447672Y624871D01*
X447629Y624808D01*
X447578Y624751D01*
X447530Y624665D01*
X447474Y624584D01*
X447446Y624513D01*
X447409Y624446D01*
X447382Y624351D01*
X447346Y624260D01*
X447335Y624184D01*
X447314Y624111D01*
X447302Y623962D01*
X447295Y623915D01*
X447297Y623896D01*
X447295Y623867D01*
X447295Y620533D01*
X447309Y620407D01*
X447316Y620281D01*
X447329Y620234D01*
X447335Y620186D01*
X447377Y620067D01*
X447412Y619946D01*
X447436Y619904D01*
X447452Y619858D01*
X447521Y619752D01*
X447582Y619642D01*
X447622Y619596D01*
X447641Y619565D01*
X447676Y619532D01*
X447741Y619455D01*
X469585Y597611D01*
X469663Y597549D01*
X469736Y597479D01*
X469800Y597441D01*
X469858Y597395D01*
X469949Y597352D01*
X470035Y597300D01*
X470106Y597278D01*
X470173Y597246D01*
X470271Y597225D01*
X470367Y597194D01*
X470441Y597188D01*
X470514Y597173D01*
X470614Y597174D01*
X470714Y597166D01*
X470788Y597177D01*
X470862Y597178D01*
X470959Y597203D01*
X471059Y597218D01*
X471128Y597245D01*
X471200Y597263D01*
X471290Y597310D01*
X471383Y597347D01*
X471444Y597389D01*
X471510Y597423D01*
X471587Y597488D01*
X471669Y597546D01*
X471719Y597601D01*
X471775Y597649D01*
X471835Y597730D01*
X471902Y597804D01*
X471938Y597869D01*
X471983Y597929D01*
X472022Y598021D01*
X472071Y598109D01*
X472091Y598181D01*
X472121Y598249D01*
X472138Y598348D01*
X472166Y598445D01*
X472174Y598545D01*
X472182Y598592D01*
X472180Y598628D01*
X472185Y598689D01*
X472185Y598972D01*
X473771Y602800D01*
X476700Y605729D01*
X480528Y607315D01*
X484672Y607315D01*
X488500Y605729D01*
X491429Y602800D01*
X493015Y598972D01*
X493015Y594828D01*
X491429Y591000D01*
X489008Y588579D01*
X488945Y588501D01*
X488876Y588428D01*
X488837Y588364D01*
X488791Y588306D01*
X488748Y588215D01*
X488697Y588129D01*
X488674Y588058D01*
X488642Y587991D01*
X488621Y587893D01*
X488590Y587797D01*
X488584Y587723D01*
X488569Y587650D01*
X488571Y587550D01*
X488562Y587450D01*
X488574Y587376D01*
X488575Y587302D01*
X488599Y587205D01*
X488614Y587105D01*
X488642Y587036D01*
X488660Y586964D01*
X488706Y586875D01*
X488743Y586781D01*
X488785Y586720D01*
X488819Y586654D01*
X488885Y586578D01*
X488942Y586495D01*
X488997Y586445D01*
X489045Y586389D01*
X489126Y586329D01*
X489201Y586262D01*
X489266Y586226D01*
X489326Y586181D01*
X489418Y586142D01*
X489506Y586093D01*
X489577Y586073D01*
X489646Y586043D01*
X489744Y586026D01*
X489841Y585998D01*
X489941Y585990D01*
X489989Y585982D01*
X490024Y585984D01*
X490085Y585979D01*
X551315Y585979D01*
X551415Y585990D01*
X551515Y585992D01*
X551588Y586010D01*
X551661Y586019D01*
X551756Y586052D01*
X551853Y586077D01*
X551919Y586111D01*
X551989Y586136D01*
X552074Y586191D01*
X552163Y586237D01*
X552220Y586285D01*
X552282Y586325D01*
X552352Y586397D01*
X552429Y586462D01*
X552473Y586522D01*
X552524Y586576D01*
X552576Y586662D01*
X552636Y586743D01*
X552665Y586811D01*
X552703Y586875D01*
X552734Y586971D01*
X552774Y587063D01*
X552787Y587136D01*
X552810Y587207D01*
X552818Y587307D01*
X552835Y587406D01*
X552832Y587480D01*
X552838Y587554D01*
X552823Y587654D01*
X552817Y587754D01*
X552797Y587825D01*
X552786Y587899D01*
X552749Y587992D01*
X552721Y588089D01*
X552685Y588154D01*
X552657Y588223D01*
X552600Y588305D01*
X552551Y588393D01*
X552486Y588469D01*
X552458Y588509D01*
X552432Y588533D01*
X552392Y588579D01*
X549971Y591000D01*
X548385Y594828D01*
X548385Y598972D01*
X549282Y601136D01*
X549303Y601210D01*
X549333Y601280D01*
X549350Y601376D01*
X549377Y601471D01*
X549381Y601547D01*
X549395Y601623D01*
X549390Y601721D01*
X549394Y601819D01*
X549381Y601894D01*
X549377Y601971D01*
X549350Y602065D01*
X549332Y602162D01*
X549301Y602232D01*
X549280Y602306D01*
X549232Y602392D01*
X549193Y602482D01*
X549147Y602543D01*
X549110Y602610D01*
X549013Y602724D01*
X548985Y602761D01*
X548971Y602774D01*
X548952Y602796D01*
X520815Y630932D01*
X520795Y630949D01*
X520778Y630969D01*
X520658Y631057D01*
X520542Y631149D01*
X520519Y631160D01*
X520497Y631176D01*
X520361Y631235D01*
X520227Y631298D01*
X520201Y631303D01*
X520177Y631314D01*
X520031Y631340D01*
X519886Y631371D01*
X519860Y631371D01*
X519834Y631376D01*
X519686Y631368D01*
X519538Y631365D01*
X519513Y631359D01*
X519486Y631358D01*
X519344Y631317D01*
X519200Y631280D01*
X519177Y631268D01*
X519151Y631261D01*
X519022Y631189D01*
X518890Y631121D01*
X518870Y631104D01*
X518847Y631091D01*
X518661Y630932D01*
X512314Y624585D01*
X503686Y624585D01*
X497585Y630686D01*
X497585Y639314D01*
X502100Y643829D01*
X502163Y643907D01*
X502233Y643980D01*
X502271Y644044D01*
X502317Y644102D01*
X502360Y644193D01*
X502411Y644279D01*
X502434Y644350D01*
X502466Y644417D01*
X502487Y644515D01*
X502518Y644611D01*
X502524Y644685D01*
X502539Y644758D01*
X502537Y644858D01*
X502546Y644958D01*
X502535Y645032D01*
X502533Y645106D01*
X502509Y645203D01*
X502494Y645303D01*
X502466Y645372D01*
X502448Y645444D01*
X502402Y645534D01*
X502365Y645627D01*
X502323Y645688D01*
X502289Y645754D01*
X502223Y645831D01*
X502166Y645913D01*
X502111Y645963D01*
X502063Y646019D01*
X501982Y646079D01*
X501907Y646146D01*
X501842Y646182D01*
X501782Y646227D01*
X501690Y646266D01*
X501602Y646315D01*
X501531Y646335D01*
X501462Y646365D01*
X501364Y646382D01*
X501267Y646410D01*
X501167Y646418D01*
X501119Y646426D01*
X501084Y646424D01*
X501023Y646429D01*
X459344Y646429D01*
X449123Y656651D01*
X449024Y656730D01*
X448930Y656814D01*
X448887Y656838D01*
X448850Y656868D01*
X448735Y656922D01*
X448625Y656983D01*
X448578Y656996D01*
X448534Y657017D01*
X448411Y657043D01*
X448289Y657078D01*
X448228Y657083D01*
X448194Y657090D01*
X448146Y657089D01*
X448045Y657097D01*
X391171Y657097D01*
X391045Y657083D01*
X390919Y657076D01*
X390872Y657063D01*
X390824Y657057D01*
X390705Y657015D01*
X390584Y656980D01*
X390542Y656956D01*
X390496Y656940D01*
X390390Y656871D01*
X390280Y656810D01*
X390233Y656770D01*
X390203Y656751D01*
X390170Y656716D01*
X390093Y656651D01*
X369255Y635813D01*
X369176Y635714D01*
X369092Y635620D01*
X369068Y635577D01*
X369038Y635540D01*
X368984Y635425D01*
X368923Y635315D01*
X368910Y635268D01*
X368889Y635224D01*
X368863Y635101D01*
X368828Y634979D01*
X368823Y634918D01*
X368816Y634884D01*
X368817Y634836D01*
X368809Y634735D01*
X368809Y423959D01*
X368828Y423790D01*
X368847Y423617D01*
X368848Y423615D01*
X368849Y423612D01*
X368906Y423453D01*
X368964Y423289D01*
X368965Y423287D01*
X368966Y423284D01*
X369058Y423142D01*
X369152Y422995D01*
X369154Y422994D01*
X369155Y422992D01*
X369279Y422872D01*
X369402Y422752D01*
X369404Y422751D01*
X369406Y422749D01*
X369415Y422744D01*
X369607Y422619D01*
X385207Y414175D01*
X385351Y414117D01*
X385493Y414056D01*
X385512Y414053D01*
X385530Y414045D01*
X385683Y414022D01*
X385836Y413994D01*
X385855Y413995D01*
X385875Y413993D01*
X386030Y414004D01*
X386184Y414012D01*
X386202Y414018D01*
X386222Y414019D01*
X386370Y414066D01*
X386519Y414109D01*
X386536Y414119D01*
X386554Y414124D01*
X386688Y414204D01*
X386823Y414279D01*
X386841Y414294D01*
X386854Y414302D01*
X386886Y414333D01*
X387009Y414438D01*
X389386Y416815D01*
X398014Y416815D01*
X404115Y410714D01*
X404115Y409702D01*
X404118Y409676D01*
X404116Y409650D01*
X404138Y409503D01*
X404155Y409356D01*
X404163Y409331D01*
X404167Y409305D01*
X404222Y409167D01*
X404272Y409028D01*
X404286Y409006D01*
X404296Y408981D01*
X404381Y408860D01*
X404461Y408735D01*
X404480Y408717D01*
X404495Y408695D01*
X404605Y408596D01*
X404712Y408493D01*
X404734Y408479D01*
X404754Y408462D01*
X404884Y408390D01*
X405011Y408314D01*
X405036Y408306D01*
X405059Y408293D01*
X405202Y408253D01*
X405343Y408208D01*
X405369Y408206D01*
X405394Y408198D01*
X405638Y408179D01*
X454406Y408179D01*
X454432Y408182D01*
X454458Y408180D01*
X454605Y408202D01*
X454752Y408219D01*
X454777Y408227D01*
X454803Y408231D01*
X454941Y408286D01*
X455080Y408336D01*
X455102Y408350D01*
X455127Y408360D01*
X455248Y408445D01*
X455373Y408525D01*
X455391Y408544D01*
X455413Y408559D01*
X455512Y408669D01*
X455615Y408776D01*
X455629Y408798D01*
X455646Y408818D01*
X455718Y408948D01*
X455794Y409075D01*
X455802Y409100D01*
X455815Y409123D01*
X455855Y409266D01*
X455900Y409407D01*
X455902Y409433D01*
X455910Y409458D01*
X455929Y409702D01*
X455929Y501023D01*
X455918Y501123D01*
X455916Y501223D01*
X455898Y501296D01*
X455889Y501369D01*
X455856Y501464D01*
X455831Y501561D01*
X455797Y501627D01*
X455772Y501697D01*
X455717Y501782D01*
X455671Y501871D01*
X455623Y501928D01*
X455583Y501990D01*
X455511Y502060D01*
X455446Y502137D01*
X455386Y502181D01*
X455332Y502232D01*
X455246Y502284D01*
X455165Y502344D01*
X455097Y502373D01*
X455033Y502411D01*
X454937Y502442D01*
X454845Y502482D01*
X454772Y502495D01*
X454701Y502518D01*
X454601Y502526D01*
X454502Y502543D01*
X454428Y502540D01*
X454354Y502546D01*
X454254Y502531D01*
X454154Y502525D01*
X454083Y502505D01*
X454009Y502494D01*
X453916Y502457D01*
X453819Y502429D01*
X453754Y502393D01*
X453685Y502365D01*
X453603Y502308D01*
X453515Y502259D01*
X453439Y502194D01*
X453399Y502166D01*
X453375Y502140D01*
X453329Y502100D01*
X450400Y499171D01*
X446572Y497585D01*
X442428Y497585D01*
X438600Y499171D01*
X435671Y502100D01*
X434085Y505928D01*
X434085Y510072D01*
X435671Y513900D01*
X438600Y516829D01*
X442428Y518415D01*
X446572Y518415D01*
X450400Y516829D01*
X453329Y513900D01*
X454015Y512243D01*
X454052Y512176D01*
X454081Y512105D01*
X454137Y512025D01*
X454185Y511938D01*
X454236Y511882D01*
X454280Y511819D01*
X454353Y511753D01*
X454419Y511680D01*
X454482Y511637D01*
X454538Y511586D01*
X454624Y511538D01*
X454705Y511482D01*
X454777Y511454D01*
X454843Y511417D01*
X454938Y511390D01*
X455030Y511354D01*
X455105Y511343D01*
X455179Y511322D01*
X455328Y511310D01*
X455374Y511303D01*
X455394Y511305D01*
X455423Y511303D01*
X469381Y511303D01*
X469507Y511317D01*
X469633Y511324D01*
X469680Y511337D01*
X469728Y511343D01*
X469847Y511385D01*
X469968Y511420D01*
X470010Y511444D01*
X470056Y511460D01*
X470162Y511529D01*
X470272Y511590D01*
X470318Y511630D01*
X470349Y511649D01*
X470382Y511684D01*
X470459Y511749D01*
X472975Y514265D01*
X473022Y514325D01*
X473077Y514378D01*
X473130Y514461D01*
X473191Y514538D01*
X473224Y514607D01*
X473265Y514672D01*
X473298Y514764D01*
X473340Y514853D01*
X473356Y514928D01*
X473382Y515000D01*
X473393Y515098D01*
X473414Y515194D01*
X473412Y515270D01*
X473421Y515346D01*
X473409Y515444D01*
X473408Y515542D01*
X473389Y515617D01*
X473380Y515692D01*
X473334Y515834D01*
X473323Y515880D01*
X473314Y515897D01*
X473305Y515925D01*
X472185Y518628D01*
X472185Y522772D01*
X473771Y526600D01*
X476700Y529529D01*
X480528Y531115D01*
X484672Y531115D01*
X488500Y529529D01*
X491429Y526600D01*
X493015Y522772D01*
X493015Y518628D01*
X491429Y514800D01*
X488500Y511871D01*
X484672Y510285D01*
X480528Y510285D01*
X478903Y510959D01*
X478829Y510980D01*
X478759Y511010D01*
X478662Y511027D01*
X478568Y511054D01*
X478491Y511058D01*
X478416Y511072D01*
X478318Y511066D01*
X478220Y511071D01*
X478144Y511058D01*
X478068Y511054D01*
X477974Y511026D01*
X477877Y511009D01*
X477807Y510978D01*
X477733Y510957D01*
X477647Y510909D01*
X477557Y510870D01*
X477496Y510824D01*
X477429Y510787D01*
X477315Y510690D01*
X477277Y510662D01*
X477265Y510647D01*
X477243Y510628D01*
X472328Y505713D01*
X463042Y505713D01*
X463016Y505710D01*
X462990Y505712D01*
X462843Y505690D01*
X462696Y505673D01*
X462671Y505665D01*
X462645Y505661D01*
X462507Y505606D01*
X462368Y505556D01*
X462346Y505542D01*
X462321Y505532D01*
X462200Y505447D01*
X462075Y505367D01*
X462057Y505348D01*
X462035Y505333D01*
X461936Y505223D01*
X461833Y505116D01*
X461819Y505094D01*
X461802Y505074D01*
X461730Y504944D01*
X461654Y504817D01*
X461646Y504792D01*
X461633Y504769D01*
X461593Y504626D01*
X461548Y504485D01*
X461546Y504459D01*
X461538Y504434D01*
X461519Y504190D01*
X461519Y407173D01*
X461533Y407047D01*
X461540Y406921D01*
X461553Y406874D01*
X461559Y406826D01*
X461601Y406707D01*
X461636Y406586D01*
X461660Y406544D01*
X461676Y406498D01*
X461745Y406392D01*
X461806Y406282D01*
X461846Y406236D01*
X461865Y406205D01*
X461900Y406172D01*
X461965Y406095D01*
X471860Y396200D01*
X471881Y396184D01*
X471898Y396164D01*
X472017Y396076D01*
X472133Y395983D01*
X472157Y395972D01*
X472178Y395957D01*
X472314Y395898D01*
X472448Y395834D01*
X472474Y395829D01*
X472498Y395819D01*
X472644Y395792D01*
X472789Y395761D01*
X472815Y395762D01*
X472841Y395757D01*
X472990Y395765D01*
X473138Y395767D01*
X473163Y395773D01*
X473189Y395775D01*
X473332Y395816D01*
X473476Y395852D01*
X473499Y395864D01*
X473524Y395871D01*
X473654Y395944D01*
X473785Y396012D01*
X473805Y396029D01*
X473828Y396042D01*
X474015Y396200D01*
X476125Y398310D01*
X480326Y400051D01*
X484874Y400051D01*
X489075Y398310D01*
X492290Y395095D01*
X494031Y390894D01*
X494031Y371106D01*
X492290Y366905D01*
X489075Y363690D01*
X484874Y361949D01*
X480326Y361949D01*
X476125Y363690D01*
X472910Y366905D01*
X471307Y370773D01*
X471259Y370861D01*
X471219Y370953D01*
X471174Y371013D01*
X471138Y371078D01*
X471070Y371152D01*
X471011Y371233D01*
X470954Y371281D01*
X470904Y371336D01*
X470821Y371393D01*
X470745Y371458D01*
X470678Y371492D01*
X470617Y371534D01*
X470524Y371571D01*
X470434Y371617D01*
X470362Y371635D01*
X470293Y371662D01*
X470194Y371676D01*
X470096Y371701D01*
X470022Y371702D01*
X469948Y371713D01*
X469848Y371704D01*
X469748Y371706D01*
X469675Y371690D01*
X469601Y371684D01*
X469505Y371653D01*
X469407Y371631D01*
X469340Y371600D01*
X469269Y371577D01*
X469183Y371525D01*
X469092Y371482D01*
X469034Y371435D01*
X468971Y371397D01*
X468898Y371327D01*
X468820Y371264D01*
X468774Y371206D01*
X468721Y371154D01*
X468666Y371070D01*
X468604Y370991D01*
X468558Y370901D01*
X468532Y370861D01*
X468520Y370827D01*
X468493Y370773D01*
X466890Y366905D01*
X463675Y363690D01*
X459474Y361949D01*
X454926Y361949D01*
G37*
%LPD*%
%LPC*%
G36*
X389386Y497585D02*
X389386Y497585D01*
X383285Y503686D01*
X383285Y512314D01*
X389386Y518415D01*
X390398Y518415D01*
X390424Y518418D01*
X390450Y518416D01*
X390597Y518438D01*
X390744Y518455D01*
X390769Y518463D01*
X390795Y518467D01*
X390933Y518522D01*
X391072Y518572D01*
X391094Y518586D01*
X391119Y518596D01*
X391240Y518681D01*
X391365Y518761D01*
X391383Y518780D01*
X391405Y518795D01*
X391504Y518905D01*
X391607Y519012D01*
X391621Y519034D01*
X391638Y519054D01*
X391710Y519184D01*
X391786Y519311D01*
X391794Y519336D01*
X391807Y519359D01*
X391847Y519502D01*
X391892Y519643D01*
X391894Y519669D01*
X391902Y519694D01*
X391921Y519938D01*
X391921Y521462D01*
X391918Y521488D01*
X391920Y521514D01*
X391898Y521661D01*
X391881Y521808D01*
X391873Y521833D01*
X391869Y521859D01*
X391814Y521997D01*
X391764Y522136D01*
X391750Y522158D01*
X391740Y522183D01*
X391655Y522304D01*
X391575Y522429D01*
X391556Y522447D01*
X391541Y522469D01*
X391431Y522568D01*
X391324Y522671D01*
X391302Y522685D01*
X391282Y522702D01*
X391152Y522774D01*
X391025Y522850D01*
X391000Y522858D01*
X390977Y522871D01*
X390834Y522911D01*
X390693Y522956D01*
X390667Y522958D01*
X390642Y522966D01*
X390398Y522985D01*
X389386Y522985D01*
X383285Y529086D01*
X383285Y537714D01*
X389386Y543815D01*
X398014Y543815D01*
X398519Y543310D01*
X398540Y543293D01*
X398557Y543273D01*
X398676Y543185D01*
X398792Y543093D01*
X398816Y543082D01*
X398837Y543066D01*
X398973Y543008D01*
X399107Y542944D01*
X399133Y542938D01*
X399157Y542928D01*
X399303Y542902D01*
X399448Y542871D01*
X399474Y542871D01*
X399500Y542866D01*
X399648Y542874D01*
X399796Y542877D01*
X399822Y542883D01*
X399848Y542884D01*
X399991Y542925D01*
X400134Y542962D01*
X400158Y542974D01*
X400183Y542981D01*
X400312Y543053D01*
X400444Y543121D01*
X400464Y543138D01*
X400487Y543151D01*
X400673Y543310D01*
X403921Y546557D01*
X403921Y546558D01*
X406004Y548641D01*
X471362Y548641D01*
X471438Y548649D01*
X471514Y548648D01*
X471610Y548669D01*
X471708Y548681D01*
X471780Y548706D01*
X471855Y548723D01*
X471943Y548765D01*
X472036Y548798D01*
X472100Y548840D01*
X472169Y548872D01*
X472246Y548934D01*
X472329Y548987D01*
X472382Y549042D01*
X472442Y549090D01*
X472503Y549167D01*
X472571Y549238D01*
X472610Y549303D01*
X472658Y549363D01*
X472726Y549496D01*
X472750Y549537D01*
X472756Y549555D01*
X472769Y549581D01*
X473771Y552000D01*
X476700Y554929D01*
X480528Y556515D01*
X484672Y556515D01*
X488500Y554929D01*
X491429Y552000D01*
X493015Y548172D01*
X493015Y544028D01*
X491429Y540200D01*
X488500Y537271D01*
X484672Y535685D01*
X480528Y535685D01*
X476700Y537271D01*
X473771Y540200D01*
X472980Y542111D01*
X472942Y542178D01*
X472914Y542249D01*
X472858Y542330D01*
X472810Y542416D01*
X472759Y542472D01*
X472715Y542535D01*
X472642Y542601D01*
X472576Y542674D01*
X472513Y542717D01*
X472456Y542768D01*
X472370Y542816D01*
X472289Y542872D01*
X472218Y542900D01*
X472151Y542937D01*
X472057Y542964D01*
X471965Y543000D01*
X471890Y543011D01*
X471816Y543032D01*
X471667Y543044D01*
X471620Y543051D01*
X471601Y543049D01*
X471572Y543051D01*
X408951Y543051D01*
X408825Y543037D01*
X408699Y543030D01*
X408652Y543017D01*
X408604Y543011D01*
X408485Y542969D01*
X408364Y542934D01*
X408322Y542910D01*
X408276Y542894D01*
X408170Y542825D01*
X408060Y542764D01*
X408013Y542724D01*
X407983Y542705D01*
X407950Y542670D01*
X407873Y542605D01*
X404561Y539293D01*
X404482Y539194D01*
X404398Y539100D01*
X404374Y539057D01*
X404344Y539020D01*
X404290Y538905D01*
X404229Y538795D01*
X404216Y538748D01*
X404195Y538704D01*
X404169Y538581D01*
X404134Y538459D01*
X404129Y538398D01*
X404122Y538364D01*
X404123Y538316D01*
X404115Y538215D01*
X404115Y529086D01*
X397957Y522928D01*
X397878Y522829D01*
X397794Y522735D01*
X397770Y522693D01*
X397740Y522655D01*
X397686Y522541D01*
X397625Y522430D01*
X397612Y522384D01*
X397591Y522340D01*
X397565Y522217D01*
X397530Y522095D01*
X397525Y522034D01*
X397518Y521999D01*
X397519Y521951D01*
X397511Y521851D01*
X397511Y519549D01*
X397525Y519423D01*
X397532Y519297D01*
X397545Y519251D01*
X397551Y519203D01*
X397593Y519084D01*
X397628Y518962D01*
X397652Y518920D01*
X397668Y518875D01*
X397737Y518768D01*
X397798Y518658D01*
X397838Y518612D01*
X397857Y518582D01*
X397892Y518548D01*
X397957Y518472D01*
X404115Y512314D01*
X404115Y503686D01*
X398014Y497585D01*
X389386Y497585D01*
G37*
%LPD*%
%LPC*%
G36*
X605286Y421385D02*
X605286Y421385D01*
X599185Y427486D01*
X599185Y436114D01*
X605286Y442215D01*
X605536Y442215D01*
X605562Y442218D01*
X605588Y442216D01*
X605735Y442238D01*
X605882Y442255D01*
X605907Y442263D01*
X605933Y442267D01*
X606071Y442322D01*
X606210Y442372D01*
X606232Y442386D01*
X606257Y442396D01*
X606378Y442481D01*
X606503Y442561D01*
X606521Y442580D01*
X606543Y442595D01*
X606642Y442705D01*
X606745Y442812D01*
X606759Y442834D01*
X606776Y442854D01*
X606848Y442984D01*
X606924Y443111D01*
X606932Y443136D01*
X606945Y443159D01*
X606985Y443302D01*
X607030Y443443D01*
X607032Y443469D01*
X607040Y443494D01*
X607059Y443738D01*
X607059Y457962D01*
X607056Y457988D01*
X607058Y458014D01*
X607036Y458161D01*
X607019Y458308D01*
X607011Y458333D01*
X607007Y458359D01*
X606952Y458497D01*
X606902Y458636D01*
X606888Y458658D01*
X606878Y458683D01*
X606793Y458804D01*
X606713Y458929D01*
X606694Y458947D01*
X606679Y458969D01*
X606569Y459068D01*
X606462Y459171D01*
X606440Y459185D01*
X606420Y459202D01*
X606290Y459274D01*
X606163Y459350D01*
X606138Y459358D01*
X606115Y459371D01*
X605972Y459411D01*
X605831Y459456D01*
X605805Y459458D01*
X605780Y459466D01*
X605536Y459485D01*
X605286Y459485D01*
X599185Y465586D01*
X599185Y474214D01*
X605286Y480315D01*
X613914Y480315D01*
X620015Y474214D01*
X620015Y465586D01*
X613880Y459452D01*
X613826Y459445D01*
X613801Y459437D01*
X613775Y459433D01*
X613637Y459378D01*
X613498Y459328D01*
X613476Y459314D01*
X613451Y459304D01*
X613330Y459219D01*
X613205Y459139D01*
X613187Y459120D01*
X613165Y459105D01*
X613066Y458995D01*
X612963Y458888D01*
X612949Y458866D01*
X612932Y458846D01*
X612860Y458716D01*
X612784Y458589D01*
X612776Y458564D01*
X612763Y458541D01*
X612723Y458398D01*
X612678Y458257D01*
X612676Y458231D01*
X612668Y458206D01*
X612649Y457962D01*
X612649Y443738D01*
X612652Y443712D01*
X612650Y443686D01*
X612672Y443539D01*
X612689Y443392D01*
X612697Y443367D01*
X612701Y443341D01*
X612756Y443203D01*
X612806Y443064D01*
X612820Y443042D01*
X612830Y443017D01*
X612915Y442896D01*
X612995Y442771D01*
X613014Y442753D01*
X613029Y442731D01*
X613139Y442632D01*
X613246Y442529D01*
X613268Y442515D01*
X613288Y442498D01*
X613418Y442426D01*
X613545Y442350D01*
X613570Y442342D01*
X613593Y442329D01*
X613736Y442289D01*
X613877Y442244D01*
X613886Y442243D01*
X620015Y436114D01*
X620015Y427486D01*
X613914Y421385D01*
X605286Y421385D01*
G37*
%LPD*%
%LPC*%
G36*
X548132Y351705D02*
X548132Y351705D01*
X546716Y353121D01*
X546617Y353200D01*
X546523Y353284D01*
X546481Y353308D01*
X546443Y353338D01*
X546329Y353392D01*
X546218Y353453D01*
X546172Y353466D01*
X546128Y353487D01*
X546004Y353513D01*
X545883Y353548D01*
X545822Y353553D01*
X545787Y353560D01*
X545739Y353559D01*
X545639Y353567D01*
X543886Y353567D01*
X542554Y354336D01*
X542553Y354337D01*
X542552Y354337D01*
X542400Y354403D01*
X542235Y354475D01*
X542233Y354475D01*
X542232Y354475D01*
X542063Y354506D01*
X541892Y354537D01*
X541890Y354537D01*
X541889Y354537D01*
X541718Y354528D01*
X541544Y354520D01*
X541542Y354519D01*
X541541Y354519D01*
X541381Y354473D01*
X541209Y354424D01*
X541207Y354423D01*
X541206Y354423D01*
X541051Y354336D01*
X540904Y354254D01*
X540903Y354253D01*
X540902Y354252D01*
X540716Y354094D01*
X540189Y353567D01*
X538295Y353567D01*
X537022Y354840D01*
X537001Y354856D01*
X536984Y354876D01*
X536865Y354964D01*
X536749Y355057D01*
X536725Y355068D01*
X536704Y355083D01*
X536568Y355142D01*
X536434Y355206D01*
X536408Y355211D01*
X536384Y355221D01*
X536237Y355248D01*
X536093Y355279D01*
X536067Y355278D01*
X536041Y355283D01*
X535892Y355275D01*
X535745Y355273D01*
X535719Y355267D01*
X535693Y355265D01*
X535551Y355224D01*
X535407Y355188D01*
X535383Y355176D01*
X535358Y355169D01*
X535229Y355096D01*
X535097Y355028D01*
X535077Y355011D01*
X535054Y354998D01*
X534868Y354840D01*
X533595Y353567D01*
X532005Y353567D01*
X530427Y353567D01*
X520007Y353567D01*
X518667Y354907D01*
X518667Y362389D01*
X520007Y363729D01*
X521901Y363729D01*
X522254Y363376D01*
X522275Y363359D01*
X522292Y363339D01*
X522411Y363251D01*
X522527Y363159D01*
X522551Y363148D01*
X522572Y363132D01*
X522708Y363074D01*
X522842Y363010D01*
X522868Y363005D01*
X522892Y362994D01*
X523038Y362968D01*
X523183Y362937D01*
X523209Y362937D01*
X523235Y362933D01*
X523384Y362940D01*
X523532Y362943D01*
X523557Y362949D01*
X523583Y362950D01*
X523726Y362992D01*
X523870Y363028D01*
X523893Y363040D01*
X523918Y363047D01*
X524047Y363119D01*
X524179Y363187D01*
X524199Y363204D01*
X524222Y363217D01*
X524408Y363376D01*
X524762Y363729D01*
X533033Y363729D01*
X534863Y362673D01*
X534927Y362586D01*
X534966Y362553D01*
X534999Y362514D01*
X535099Y362440D01*
X535193Y362360D01*
X535238Y362337D01*
X535279Y362307D01*
X535393Y362258D01*
X535503Y362201D01*
X535553Y362189D01*
X535600Y362169D01*
X535721Y362147D01*
X535841Y362117D01*
X535892Y362116D01*
X535943Y362107D01*
X536066Y362113D01*
X536190Y362111D01*
X536240Y362122D01*
X536291Y362125D01*
X536409Y362159D01*
X536530Y362185D01*
X536576Y362207D01*
X536625Y362221D01*
X536733Y362282D01*
X536845Y362335D01*
X536885Y362367D01*
X536930Y362392D01*
X537116Y362550D01*
X538295Y363729D01*
X547737Y363729D01*
X549154Y362312D01*
X549253Y362234D01*
X549347Y362149D01*
X549389Y362126D01*
X549427Y362096D01*
X549541Y362042D01*
X549652Y361980D01*
X549698Y361967D01*
X549742Y361947D01*
X549865Y361920D01*
X549987Y361886D01*
X550048Y361881D01*
X550083Y361873D01*
X550131Y361874D01*
X550231Y361866D01*
X551586Y361866D01*
X551614Y361844D01*
X551667Y361789D01*
X551789Y361705D01*
X551826Y361675D01*
X551844Y361667D01*
X551869Y361650D01*
X552801Y361111D01*
X552802Y361111D01*
X552803Y361110D01*
X552955Y361045D01*
X553121Y360973D01*
X553122Y360973D01*
X553123Y360972D01*
X553287Y360943D01*
X553464Y360911D01*
X553465Y360911D01*
X553466Y360910D01*
X553637Y360919D01*
X553812Y360928D01*
X553813Y360928D01*
X553814Y360928D01*
X553969Y360973D01*
X554147Y361024D01*
X554148Y361024D01*
X554149Y361025D01*
X554288Y361102D01*
X554451Y361193D01*
X554452Y361194D01*
X554453Y361195D01*
X554640Y361353D01*
X554718Y361432D01*
X554766Y361492D01*
X554822Y361546D01*
X554906Y361668D01*
X554935Y361705D01*
X554943Y361723D01*
X554961Y361748D01*
X555607Y362866D01*
X556725Y363512D01*
X556787Y363558D01*
X556855Y363596D01*
X556967Y363692D01*
X557005Y363720D01*
X557013Y363729D01*
X560857Y363729D01*
X562239Y362347D01*
X562252Y362337D01*
X562262Y362324D01*
X562388Y362228D01*
X562512Y362131D01*
X562527Y362123D01*
X562540Y362113D01*
X562684Y362049D01*
X562827Y361982D01*
X562843Y361978D01*
X562858Y361971D01*
X563013Y361941D01*
X563168Y361908D01*
X563184Y361909D01*
X563201Y361905D01*
X563359Y361912D01*
X563516Y361914D01*
X563532Y361918D01*
X563549Y361919D01*
X563787Y361976D01*
X564008Y362048D01*
X565354Y361610D01*
X565370Y361607D01*
X565386Y361600D01*
X565541Y361573D01*
X565696Y361541D01*
X565712Y361542D01*
X565729Y361539D01*
X565886Y361547D01*
X566044Y361552D01*
X566060Y361556D01*
X566077Y361557D01*
X566228Y361600D01*
X566381Y361641D01*
X566396Y361649D01*
X566412Y361653D01*
X566549Y361730D01*
X566689Y361804D01*
X566701Y361815D01*
X566716Y361823D01*
X566766Y361866D01*
X570239Y361866D01*
X570267Y361844D01*
X570321Y361789D01*
X570443Y361705D01*
X570480Y361675D01*
X570498Y361667D01*
X570522Y361650D01*
X571641Y361004D01*
X572287Y359885D01*
X572333Y359823D01*
X572371Y359756D01*
X572466Y359643D01*
X572495Y359605D01*
X572504Y359598D01*
X572504Y355831D01*
X572481Y355804D01*
X572426Y355750D01*
X572342Y355628D01*
X572313Y355591D01*
X572304Y355573D01*
X572287Y355548D01*
X571641Y354430D01*
X570782Y353933D01*
X570660Y353843D01*
X570536Y353757D01*
X570521Y353740D01*
X570502Y353726D01*
X570404Y353610D01*
X570303Y353498D01*
X570291Y353478D01*
X570276Y353460D01*
X570208Y353326D01*
X570134Y353193D01*
X570128Y353171D01*
X570117Y353150D01*
X570115Y353139D01*
X568680Y351705D01*
X566786Y351705D01*
X565496Y352995D01*
X565483Y353005D01*
X565472Y353018D01*
X565347Y353113D01*
X565223Y353211D01*
X565208Y353218D01*
X565195Y353228D01*
X565050Y353293D01*
X564908Y353360D01*
X564892Y353364D01*
X564877Y353370D01*
X564721Y353400D01*
X564567Y353433D01*
X564551Y353433D01*
X564534Y353436D01*
X564376Y353430D01*
X564219Y353427D01*
X564203Y353423D01*
X564186Y353423D01*
X564018Y353383D01*
X563084Y353686D01*
X563067Y353689D01*
X563052Y353696D01*
X562897Y353724D01*
X562742Y353755D01*
X562726Y353755D01*
X562709Y353758D01*
X562552Y353750D01*
X562394Y353745D01*
X562378Y353741D01*
X562361Y353740D01*
X562210Y353696D01*
X562057Y353656D01*
X562042Y353648D01*
X562026Y353643D01*
X561891Y353567D01*
X559979Y353567D01*
X559723Y353715D01*
X559722Y353716D01*
X559720Y353717D01*
X559563Y353784D01*
X559403Y353854D01*
X559402Y353854D01*
X559400Y353855D01*
X559233Y353885D01*
X559060Y353916D01*
X559059Y353916D01*
X559057Y353916D01*
X558884Y353907D01*
X558712Y353899D01*
X558711Y353898D01*
X558709Y353898D01*
X558543Y353850D01*
X558377Y353803D01*
X558376Y353802D01*
X558375Y353802D01*
X558220Y353715D01*
X558073Y353633D01*
X558072Y353632D01*
X558070Y353632D01*
X557995Y353567D01*
X556084Y353567D01*
X555209Y354442D01*
X555169Y354474D01*
X555135Y354512D01*
X555033Y354582D01*
X554936Y354659D01*
X554890Y354680D01*
X554848Y354709D01*
X554733Y354755D01*
X554621Y354808D01*
X554571Y354818D01*
X554524Y354837D01*
X554401Y354855D01*
X554280Y354881D01*
X554229Y354880D01*
X554179Y354888D01*
X554055Y354877D01*
X553932Y354875D01*
X553882Y354863D01*
X553831Y354858D01*
X553714Y354820D01*
X553594Y354790D01*
X553548Y354767D01*
X553500Y354751D01*
X553394Y354687D01*
X553284Y354630D01*
X553245Y354597D01*
X553201Y354571D01*
X553156Y354527D01*
X552128Y353933D01*
X552007Y353843D01*
X551883Y353757D01*
X551867Y353740D01*
X551848Y353726D01*
X551750Y353610D01*
X551649Y353498D01*
X551638Y353478D01*
X551623Y353460D01*
X551554Y353326D01*
X551481Y353193D01*
X551474Y353171D01*
X551464Y353150D01*
X551461Y353139D01*
X550027Y351705D01*
X548132Y351705D01*
G37*
%LPD*%
D10*
X520954Y361442D02*
X520954Y355854D01*
X523438Y355854D01*
X525709Y355854D02*
X528192Y355854D01*
X525709Y355854D02*
X525709Y361442D01*
X528192Y361442D01*
X527571Y358958D02*
X525709Y358958D01*
X530453Y361442D02*
X530453Y355854D01*
X530453Y361442D02*
X532005Y361442D01*
X532081Y361440D01*
X532157Y361435D01*
X532233Y361425D01*
X532308Y361412D01*
X532382Y361395D01*
X532456Y361375D01*
X532528Y361351D01*
X532599Y361324D01*
X532669Y361293D01*
X532737Y361259D01*
X532803Y361221D01*
X532867Y361180D01*
X532930Y361137D01*
X532990Y361090D01*
X533047Y361040D01*
X533102Y360987D01*
X533155Y360932D01*
X533205Y360875D01*
X533252Y360815D01*
X533295Y360752D01*
X533336Y360688D01*
X533374Y360622D01*
X533408Y360554D01*
X533439Y360484D01*
X533466Y360413D01*
X533490Y360340D01*
X533510Y360267D01*
X533527Y360193D01*
X533540Y360118D01*
X533550Y360042D01*
X533555Y359966D01*
X533557Y359890D01*
X533557Y357406D01*
X533555Y357327D01*
X533549Y357249D01*
X533539Y357171D01*
X533525Y357094D01*
X533507Y357017D01*
X533486Y356941D01*
X533460Y356867D01*
X533431Y356794D01*
X533398Y356723D01*
X533362Y356653D01*
X533322Y356585D01*
X533279Y356519D01*
X533232Y356456D01*
X533183Y356395D01*
X533130Y356337D01*
X533074Y356281D01*
X533016Y356228D01*
X532955Y356179D01*
X532892Y356132D01*
X532826Y356089D01*
X532758Y356049D01*
X532689Y356013D01*
X532617Y355980D01*
X532544Y355951D01*
X532470Y355925D01*
X532394Y355904D01*
X532317Y355886D01*
X532240Y355872D01*
X532162Y355862D01*
X532084Y355856D01*
X532005Y355854D01*
X530453Y355854D01*
X539242Y355854D02*
X539242Y361442D01*
X541725Y361442D01*
X541725Y358958D02*
X539242Y358958D01*
X543817Y356785D02*
X543817Y361442D01*
X543817Y356785D02*
X543819Y356727D01*
X543824Y356668D01*
X543833Y356611D01*
X543846Y356553D01*
X543863Y356497D01*
X543882Y356442D01*
X543906Y356389D01*
X543932Y356336D01*
X543962Y356286D01*
X543995Y356238D01*
X544031Y356192D01*
X544069Y356148D01*
X544111Y356106D01*
X544155Y356068D01*
X544201Y356032D01*
X544249Y355999D01*
X544299Y355969D01*
X544352Y355943D01*
X544405Y355919D01*
X544460Y355900D01*
X544516Y355883D01*
X544574Y355870D01*
X544631Y355861D01*
X544690Y355856D01*
X544748Y355854D01*
X546635Y355854D02*
X546635Y359579D01*
X546480Y361132D02*
X546480Y361442D01*
X546790Y361442D01*
X546790Y361132D01*
X546480Y361132D01*
X549080Y359579D02*
X549080Y353991D01*
X549080Y359579D02*
X550632Y359579D01*
X550690Y359577D01*
X550749Y359572D01*
X550806Y359563D01*
X550864Y359550D01*
X550920Y359533D01*
X550975Y359514D01*
X551028Y359490D01*
X551081Y359464D01*
X551131Y359434D01*
X551179Y359401D01*
X551225Y359365D01*
X551269Y359327D01*
X551311Y359285D01*
X551349Y359241D01*
X551385Y359195D01*
X551418Y359147D01*
X551448Y359097D01*
X551474Y359044D01*
X551498Y358991D01*
X551517Y358936D01*
X551534Y358880D01*
X551547Y358822D01*
X551556Y358765D01*
X551561Y358706D01*
X551563Y358648D01*
X551563Y356785D01*
X551561Y356727D01*
X551556Y356668D01*
X551547Y356611D01*
X551534Y356553D01*
X551517Y356497D01*
X551498Y356442D01*
X551474Y356389D01*
X551448Y356336D01*
X551418Y356286D01*
X551385Y356238D01*
X551349Y356192D01*
X551311Y356148D01*
X551269Y356106D01*
X551225Y356068D01*
X551179Y356032D01*
X551131Y355999D01*
X551081Y355969D01*
X551028Y355943D01*
X550975Y355919D01*
X550920Y355900D01*
X550864Y355883D01*
X550806Y355870D01*
X550749Y355861D01*
X550690Y355856D01*
X550632Y355854D01*
X549080Y355854D01*
X557031Y355854D02*
X557031Y360511D01*
X557033Y360569D01*
X557038Y360628D01*
X557047Y360685D01*
X557060Y360743D01*
X557077Y360799D01*
X557096Y360854D01*
X557120Y360907D01*
X557146Y360960D01*
X557176Y361010D01*
X557209Y361058D01*
X557245Y361104D01*
X557283Y361148D01*
X557325Y361190D01*
X557369Y361228D01*
X557415Y361264D01*
X557463Y361297D01*
X557514Y361327D01*
X557566Y361353D01*
X557619Y361377D01*
X557674Y361396D01*
X557730Y361413D01*
X557788Y361426D01*
X557845Y361435D01*
X557904Y361440D01*
X557962Y361442D01*
X558273Y361442D01*
X558273Y359579D02*
X556410Y359579D01*
X559910Y361442D02*
X559910Y356785D01*
X559912Y356727D01*
X559917Y356668D01*
X559926Y356611D01*
X559939Y356553D01*
X559956Y356497D01*
X559975Y356442D01*
X559999Y356389D01*
X560025Y356336D01*
X560055Y356286D01*
X560088Y356238D01*
X560124Y356192D01*
X560162Y356148D01*
X560204Y356106D01*
X560248Y356068D01*
X560294Y356032D01*
X560342Y355999D01*
X560392Y355969D01*
X560445Y355943D01*
X560498Y355919D01*
X560553Y355900D01*
X560609Y355883D01*
X560667Y355870D01*
X560724Y355861D01*
X560783Y355856D01*
X560841Y355854D01*
X562767Y357096D02*
X562767Y358338D01*
X562766Y358338D02*
X562768Y358408D01*
X562774Y358477D01*
X562784Y358546D01*
X562797Y358614D01*
X562815Y358682D01*
X562836Y358748D01*
X562861Y358813D01*
X562889Y358877D01*
X562921Y358939D01*
X562956Y358999D01*
X562995Y359057D01*
X563037Y359112D01*
X563082Y359166D01*
X563130Y359216D01*
X563180Y359264D01*
X563234Y359309D01*
X563289Y359351D01*
X563347Y359390D01*
X563407Y359425D01*
X563469Y359457D01*
X563533Y359485D01*
X563598Y359510D01*
X563664Y359531D01*
X563732Y359549D01*
X563800Y359562D01*
X563869Y359572D01*
X563938Y359578D01*
X564008Y359580D01*
X564078Y359578D01*
X564147Y359572D01*
X564216Y359562D01*
X564284Y359549D01*
X564352Y359531D01*
X564418Y359510D01*
X564483Y359485D01*
X564547Y359457D01*
X564609Y359425D01*
X564669Y359390D01*
X564727Y359351D01*
X564782Y359309D01*
X564836Y359264D01*
X564886Y359216D01*
X564934Y359166D01*
X564979Y359112D01*
X565021Y359057D01*
X565060Y358999D01*
X565095Y358939D01*
X565127Y358877D01*
X565155Y358813D01*
X565180Y358748D01*
X565201Y358682D01*
X565219Y358614D01*
X565232Y358546D01*
X565242Y358477D01*
X565248Y358408D01*
X565250Y358338D01*
X565250Y357096D01*
X565248Y357026D01*
X565242Y356957D01*
X565232Y356888D01*
X565219Y356820D01*
X565201Y356752D01*
X565180Y356686D01*
X565155Y356621D01*
X565127Y356557D01*
X565095Y356495D01*
X565060Y356435D01*
X565021Y356377D01*
X564979Y356322D01*
X564934Y356268D01*
X564886Y356218D01*
X564836Y356170D01*
X564782Y356125D01*
X564727Y356083D01*
X564669Y356044D01*
X564609Y356009D01*
X564547Y355977D01*
X564483Y355949D01*
X564418Y355924D01*
X564352Y355903D01*
X564284Y355885D01*
X564216Y355872D01*
X564147Y355862D01*
X564078Y355856D01*
X564008Y355854D01*
X563938Y355856D01*
X563869Y355862D01*
X563800Y355872D01*
X563732Y355885D01*
X563664Y355903D01*
X563598Y355924D01*
X563533Y355949D01*
X563469Y355977D01*
X563407Y356009D01*
X563347Y356044D01*
X563289Y356083D01*
X563234Y356125D01*
X563180Y356170D01*
X563130Y356218D01*
X563082Y356268D01*
X563037Y356322D01*
X562995Y356377D01*
X562956Y356435D01*
X562921Y356495D01*
X562889Y356557D01*
X562861Y356621D01*
X562836Y356686D01*
X562815Y356752D01*
X562797Y356820D01*
X562784Y356888D01*
X562774Y356957D01*
X562768Y357026D01*
X562766Y357096D01*
X567733Y359579D02*
X567733Y353991D01*
X567733Y359579D02*
X569285Y359579D01*
X569343Y359577D01*
X569402Y359572D01*
X569459Y359563D01*
X569517Y359550D01*
X569573Y359533D01*
X569628Y359514D01*
X569681Y359490D01*
X569734Y359464D01*
X569784Y359434D01*
X569832Y359401D01*
X569878Y359365D01*
X569922Y359327D01*
X569964Y359285D01*
X570002Y359241D01*
X570038Y359195D01*
X570071Y359147D01*
X570101Y359097D01*
X570127Y359044D01*
X570151Y358991D01*
X570170Y358936D01*
X570187Y358880D01*
X570200Y358822D01*
X570209Y358765D01*
X570214Y358706D01*
X570216Y358648D01*
X570217Y358648D02*
X570217Y356785D01*
X570216Y356785D02*
X570214Y356727D01*
X570209Y356668D01*
X570200Y356611D01*
X570187Y356553D01*
X570170Y356497D01*
X570151Y356442D01*
X570127Y356389D01*
X570101Y356336D01*
X570071Y356286D01*
X570038Y356238D01*
X570002Y356192D01*
X569964Y356148D01*
X569922Y356106D01*
X569878Y356068D01*
X569832Y356032D01*
X569784Y355999D01*
X569734Y355969D01*
X569681Y355943D01*
X569628Y355919D01*
X569573Y355900D01*
X569517Y355883D01*
X569459Y355870D01*
X569402Y355861D01*
X569343Y355856D01*
X569285Y355854D01*
X567733Y355854D01*
D11*
X444500Y635000D03*
D12*
X444500Y584200D03*
D11*
X444500Y508000D03*
D12*
X444500Y457200D03*
D11*
X558800Y520700D03*
X558800Y546100D03*
X482600Y546100D03*
X482600Y520700D03*
X558800Y571500D03*
X558800Y596900D03*
X482600Y571500D03*
X482600Y596900D03*
D13*
X482600Y388620D02*
X482600Y373380D01*
X457200Y373380D02*
X457200Y388620D01*
X431800Y388620D02*
X431800Y373380D01*
D12*
X609600Y431800D03*
X609600Y406400D03*
X609600Y584200D03*
X609600Y558800D03*
D14*
X609600Y635000D03*
X508000Y635000D03*
X609600Y469900D03*
X508000Y469900D03*
D15*
X393700Y533400D03*
X393700Y635000D03*
X393700Y406400D03*
X393700Y508000D03*
D16*
X609854Y584962D02*
X609854Y634746D01*
X609854Y584962D02*
X609600Y584200D01*
X609854Y634746D02*
X609600Y635000D01*
X508508Y520954D02*
X508508Y471170D01*
X508508Y520954D02*
X558292Y570738D01*
X508508Y471170D02*
X508000Y469900D01*
X558292Y570738D02*
X558800Y571500D01*
X570738Y560070D02*
X608076Y560070D01*
X570738Y560070D02*
X560070Y570738D01*
X608076Y560070D02*
X609600Y558800D01*
X560070Y570738D02*
X558800Y571500D01*
X609854Y469392D02*
X609854Y432054D01*
X609600Y431800D01*
X609854Y469392D02*
X609600Y469900D01*
X394716Y508508D02*
X394716Y533400D01*
X394716Y508508D02*
X393700Y508000D01*
X407162Y545846D02*
X481838Y545846D01*
X407162Y545846D02*
X394716Y533400D01*
X481838Y545846D02*
X482600Y546100D01*
X394716Y533400D02*
X393700Y533400D01*
X426720Y458724D02*
X444500Y458724D01*
X426720Y458724D02*
X382270Y503174D01*
X382270Y538734D01*
X426720Y583184D01*
X444500Y583184D01*
X444500Y458724D02*
X444500Y457200D01*
X608076Y416052D02*
X608076Y407162D01*
X576072Y435356D02*
X560070Y464058D01*
X576072Y435356D02*
X608076Y416052D01*
X560070Y464058D02*
X560070Y519176D01*
X608076Y407162D02*
X609600Y406400D01*
X560070Y519176D02*
X558800Y520700D01*
X464312Y348234D02*
X432054Y367792D01*
X464312Y348234D02*
X501650Y348234D01*
X576072Y435356D01*
X431800Y381000D02*
X432054Y367792D01*
X444500Y583184D02*
X453390Y583184D01*
X478282Y558292D01*
X487172Y558292D01*
X496062Y549402D01*
X496062Y465836D01*
X503174Y458724D01*
X554736Y458724D01*
X560070Y464058D01*
X444500Y583184D02*
X444500Y584200D01*
X481838Y581406D02*
X481838Y572516D01*
X480060Y583184D02*
X444500Y618744D01*
X480060Y583184D02*
X481838Y581406D01*
X444500Y618744D02*
X444500Y634746D01*
X481838Y572516D02*
X482600Y571500D01*
X560070Y547624D02*
X615188Y547624D01*
X622300Y554736D01*
X622300Y563626D01*
X613410Y572516D01*
X574294Y572516D01*
X563626Y583184D01*
X480060Y583184D01*
X558800Y546100D02*
X560070Y547624D01*
X444500Y634746D02*
X394716Y634746D01*
X393700Y635000D01*
X444500Y634746D02*
X444500Y635000D01*
X508508Y634746D02*
X520954Y634746D01*
X558800Y596900D01*
X508508Y634746D02*
X508000Y635000D01*
X471170Y508508D02*
X458724Y508508D01*
X444500Y508508D01*
X471170Y508508D02*
X481838Y519176D01*
X444500Y508508D02*
X444500Y508000D01*
X481838Y519176D02*
X482600Y520700D01*
X458724Y405384D02*
X394716Y405384D01*
X458724Y405384D02*
X481838Y382270D01*
X394716Y405384D02*
X393700Y406400D01*
X481838Y382270D02*
X482600Y381000D01*
X458724Y405384D02*
X458724Y508508D01*
X460502Y649224D02*
X506730Y649224D01*
X460502Y649224D02*
X449834Y659892D01*
X389382Y659892D01*
X366014Y636524D01*
X366014Y421386D01*
X393700Y406400D01*
X508000Y635000D02*
X506730Y649224D01*
D17*
X355600Y673100D03*
X660400Y673100D03*
X660400Y342900D03*
X355600Y342900D03*
M02*
