M48
;GenerationSoftware,Autodesk,EAGLE,8.6.1*%
;CreationDate,2018-02-10T19:35:33Z*%
FMAT,2
ICI,OFF
METRIC,TZ,000.000
T3C0.813
T2C0.850
T1C1.016
%
G90
M71
T1
X48260Y38100
X45720Y38100
X43180Y38100
T2
X35560Y67310
X66040Y67310
X66040Y34290
X35560Y34290
T3
X44450Y63500
X44450Y58420
X44450Y50800
X44450Y45720
X55880Y52070
X55880Y54610
X48260Y54610
X48260Y52070
X55880Y57150
X55880Y59690
X48260Y57150
X48260Y59690
X60960Y43180
X60960Y40640
X60960Y58420
X60960Y55880
X60960Y63500
X50800Y63500
X60960Y46990
X50800Y46990
X39370Y53340
X39370Y63500
X39370Y40640
X39370Y50800
M30