G04 EAGLE Gerber X2 export*
%TF.Part,Single*%
%TF.FileFunction,Legend,Top,1*%
%TF.FilePolarity,Positive*%
%TF.GenerationSoftware,Autodesk,EAGLE,8.6.1*%
%TF.CreationDate,2018-02-10T19:35:33Z*%
G75*
%MOMM*%
%FSLAX34Y34*%
%LPD*%
%AMOC8*
5,1,8,0,0,1.08239X$1,22.5*%
G01*
%ADD10C,0.152400*%
%ADD11C,0.127000*%
%ADD12R,2.540000X0.508000*%
%ADD13C,0.203200*%
%ADD14C,0.254000*%
%ADD15R,0.863600X0.609600*%
%ADD16R,0.609600X0.863600*%


D10*
X468630Y576580D02*
X468630Y638810D01*
X464820Y572770D02*
X424180Y572770D01*
X420370Y576580D02*
X420370Y638810D01*
X461010Y646430D02*
X468630Y638810D01*
X461264Y627380D02*
X454914Y627380D01*
X458216Y624078D02*
X458216Y630682D01*
X444500Y624840D02*
X444500Y615950D01*
X432308Y615950D01*
X432308Y610870D01*
X456692Y610870D01*
X456692Y615950D01*
X444500Y615950D01*
X444500Y603250D02*
X444500Y594360D01*
X420370Y638810D02*
X427990Y646430D01*
X461010Y646430D01*
X468630Y576580D02*
X468628Y576458D01*
X468622Y576336D01*
X468612Y576214D01*
X468599Y576093D01*
X468581Y575972D01*
X468560Y575852D01*
X468534Y575732D01*
X468505Y575614D01*
X468473Y575496D01*
X468436Y575379D01*
X468396Y575264D01*
X468352Y575150D01*
X468304Y575038D01*
X468253Y574927D01*
X468198Y574818D01*
X468140Y574710D01*
X468078Y574605D01*
X468013Y574502D01*
X467945Y574400D01*
X467873Y574301D01*
X467799Y574205D01*
X467721Y574110D01*
X467640Y574019D01*
X467557Y573929D01*
X467471Y573843D01*
X467381Y573760D01*
X467290Y573679D01*
X467195Y573601D01*
X467099Y573527D01*
X467000Y573455D01*
X466898Y573387D01*
X466795Y573322D01*
X466690Y573260D01*
X466582Y573202D01*
X466473Y573147D01*
X466362Y573096D01*
X466250Y573048D01*
X466136Y573004D01*
X466021Y572964D01*
X465904Y572927D01*
X465786Y572895D01*
X465668Y572866D01*
X465548Y572840D01*
X465428Y572819D01*
X465307Y572801D01*
X465186Y572788D01*
X465064Y572778D01*
X464942Y572772D01*
X464820Y572770D01*
X424180Y572770D02*
X424058Y572772D01*
X423936Y572778D01*
X423814Y572788D01*
X423693Y572801D01*
X423572Y572819D01*
X423452Y572840D01*
X423332Y572866D01*
X423214Y572895D01*
X423096Y572927D01*
X422979Y572964D01*
X422864Y573004D01*
X422750Y573048D01*
X422638Y573096D01*
X422527Y573147D01*
X422418Y573202D01*
X422310Y573260D01*
X422205Y573322D01*
X422102Y573387D01*
X422000Y573455D01*
X421901Y573527D01*
X421805Y573601D01*
X421710Y573679D01*
X421619Y573760D01*
X421529Y573843D01*
X421443Y573929D01*
X421360Y574019D01*
X421279Y574110D01*
X421201Y574205D01*
X421127Y574301D01*
X421055Y574400D01*
X420987Y574502D01*
X420922Y574605D01*
X420860Y574710D01*
X420802Y574818D01*
X420747Y574927D01*
X420696Y575038D01*
X420648Y575150D01*
X420604Y575264D01*
X420564Y575379D01*
X420527Y575496D01*
X420495Y575614D01*
X420466Y575732D01*
X420440Y575852D01*
X420419Y575972D01*
X420401Y576093D01*
X420388Y576214D01*
X420378Y576336D01*
X420372Y576458D01*
X420370Y576580D01*
D11*
X484505Y624803D02*
X484505Y627343D01*
X484505Y624803D02*
X484503Y624703D01*
X484497Y624604D01*
X484487Y624504D01*
X484474Y624406D01*
X484456Y624307D01*
X484435Y624210D01*
X484410Y624114D01*
X484381Y624018D01*
X484348Y623924D01*
X484312Y623831D01*
X484272Y623740D01*
X484228Y623650D01*
X484181Y623562D01*
X484131Y623476D01*
X484077Y623392D01*
X484020Y623310D01*
X483960Y623231D01*
X483896Y623153D01*
X483830Y623079D01*
X483761Y623007D01*
X483689Y622938D01*
X483615Y622872D01*
X483537Y622808D01*
X483458Y622748D01*
X483376Y622691D01*
X483292Y622637D01*
X483206Y622587D01*
X483118Y622540D01*
X483028Y622496D01*
X482937Y622456D01*
X482844Y622420D01*
X482750Y622387D01*
X482654Y622358D01*
X482558Y622333D01*
X482461Y622312D01*
X482362Y622294D01*
X482264Y622281D01*
X482164Y622271D01*
X482065Y622265D01*
X481965Y622263D01*
X475615Y622263D01*
X475515Y622265D01*
X475416Y622271D01*
X475316Y622281D01*
X475218Y622294D01*
X475119Y622312D01*
X475022Y622333D01*
X474926Y622358D01*
X474830Y622387D01*
X474736Y622420D01*
X474643Y622456D01*
X474552Y622496D01*
X474462Y622540D01*
X474374Y622587D01*
X474288Y622637D01*
X474204Y622691D01*
X474122Y622748D01*
X474043Y622808D01*
X473965Y622872D01*
X473891Y622938D01*
X473819Y623007D01*
X473750Y623079D01*
X473684Y623153D01*
X473620Y623231D01*
X473560Y623310D01*
X473503Y623392D01*
X473449Y623476D01*
X473399Y623562D01*
X473352Y623650D01*
X473308Y623740D01*
X473268Y623831D01*
X473232Y623924D01*
X473199Y624018D01*
X473170Y624114D01*
X473145Y624210D01*
X473124Y624307D01*
X473106Y624406D01*
X473093Y624504D01*
X473083Y624604D01*
X473077Y624703D01*
X473075Y624803D01*
X473075Y627343D01*
X475615Y631825D02*
X473075Y635000D01*
X484505Y635000D01*
X484505Y631825D02*
X484505Y638175D01*
D12*
X444500Y604520D03*
D10*
X468630Y511810D02*
X468630Y449580D01*
X464820Y445770D02*
X424180Y445770D01*
X420370Y449580D02*
X420370Y511810D01*
X461010Y519430D02*
X468630Y511810D01*
X461264Y500380D02*
X454914Y500380D01*
X458216Y497078D02*
X458216Y503682D01*
X444500Y497840D02*
X444500Y488950D01*
X432308Y488950D01*
X432308Y483870D01*
X456692Y483870D01*
X456692Y488950D01*
X444500Y488950D01*
X444500Y476250D02*
X444500Y467360D01*
X420370Y511810D02*
X427990Y519430D01*
X461010Y519430D01*
X468630Y449580D02*
X468628Y449458D01*
X468622Y449336D01*
X468612Y449214D01*
X468599Y449093D01*
X468581Y448972D01*
X468560Y448852D01*
X468534Y448732D01*
X468505Y448614D01*
X468473Y448496D01*
X468436Y448379D01*
X468396Y448264D01*
X468352Y448150D01*
X468304Y448038D01*
X468253Y447927D01*
X468198Y447818D01*
X468140Y447710D01*
X468078Y447605D01*
X468013Y447502D01*
X467945Y447400D01*
X467873Y447301D01*
X467799Y447205D01*
X467721Y447110D01*
X467640Y447019D01*
X467557Y446929D01*
X467471Y446843D01*
X467381Y446760D01*
X467290Y446679D01*
X467195Y446601D01*
X467099Y446527D01*
X467000Y446455D01*
X466898Y446387D01*
X466795Y446322D01*
X466690Y446260D01*
X466582Y446202D01*
X466473Y446147D01*
X466362Y446096D01*
X466250Y446048D01*
X466136Y446004D01*
X466021Y445964D01*
X465904Y445927D01*
X465786Y445895D01*
X465668Y445866D01*
X465548Y445840D01*
X465428Y445819D01*
X465307Y445801D01*
X465186Y445788D01*
X465064Y445778D01*
X464942Y445772D01*
X464820Y445770D01*
X424180Y445770D02*
X424058Y445772D01*
X423936Y445778D01*
X423814Y445788D01*
X423693Y445801D01*
X423572Y445819D01*
X423452Y445840D01*
X423332Y445866D01*
X423214Y445895D01*
X423096Y445927D01*
X422979Y445964D01*
X422864Y446004D01*
X422750Y446048D01*
X422638Y446096D01*
X422527Y446147D01*
X422418Y446202D01*
X422310Y446260D01*
X422205Y446322D01*
X422102Y446387D01*
X422000Y446455D01*
X421901Y446527D01*
X421805Y446601D01*
X421710Y446679D01*
X421619Y446760D01*
X421529Y446843D01*
X421443Y446929D01*
X421360Y447019D01*
X421279Y447110D01*
X421201Y447205D01*
X421127Y447301D01*
X421055Y447400D01*
X420987Y447502D01*
X420922Y447605D01*
X420860Y447710D01*
X420802Y447818D01*
X420747Y447927D01*
X420696Y448038D01*
X420648Y448150D01*
X420604Y448264D01*
X420564Y448379D01*
X420527Y448496D01*
X420495Y448614D01*
X420466Y448732D01*
X420440Y448852D01*
X420419Y448972D01*
X420401Y449093D01*
X420388Y449214D01*
X420378Y449336D01*
X420372Y449458D01*
X420370Y449580D01*
D11*
X484505Y497803D02*
X484505Y500343D01*
X484505Y497803D02*
X484503Y497703D01*
X484497Y497604D01*
X484487Y497504D01*
X484474Y497406D01*
X484456Y497307D01*
X484435Y497210D01*
X484410Y497114D01*
X484381Y497018D01*
X484348Y496924D01*
X484312Y496831D01*
X484272Y496740D01*
X484228Y496650D01*
X484181Y496562D01*
X484131Y496476D01*
X484077Y496392D01*
X484020Y496310D01*
X483960Y496231D01*
X483896Y496153D01*
X483830Y496079D01*
X483761Y496007D01*
X483689Y495938D01*
X483615Y495872D01*
X483537Y495808D01*
X483458Y495748D01*
X483376Y495691D01*
X483292Y495637D01*
X483206Y495587D01*
X483118Y495540D01*
X483028Y495496D01*
X482937Y495456D01*
X482844Y495420D01*
X482750Y495387D01*
X482654Y495358D01*
X482558Y495333D01*
X482461Y495312D01*
X482362Y495294D01*
X482264Y495281D01*
X482164Y495271D01*
X482065Y495265D01*
X481965Y495263D01*
X475615Y495263D01*
X475515Y495265D01*
X475416Y495271D01*
X475316Y495281D01*
X475218Y495294D01*
X475119Y495312D01*
X475022Y495333D01*
X474926Y495358D01*
X474830Y495387D01*
X474736Y495420D01*
X474643Y495456D01*
X474552Y495496D01*
X474462Y495540D01*
X474374Y495587D01*
X474288Y495637D01*
X474204Y495691D01*
X474122Y495748D01*
X474043Y495808D01*
X473965Y495872D01*
X473891Y495938D01*
X473819Y496007D01*
X473750Y496079D01*
X473684Y496153D01*
X473620Y496231D01*
X473560Y496310D01*
X473503Y496392D01*
X473449Y496476D01*
X473399Y496562D01*
X473352Y496650D01*
X473308Y496740D01*
X473268Y496831D01*
X473232Y496924D01*
X473199Y497018D01*
X473170Y497114D01*
X473145Y497210D01*
X473124Y497307D01*
X473106Y497406D01*
X473093Y497504D01*
X473083Y497604D01*
X473077Y497703D01*
X473075Y497803D01*
X473075Y500343D01*
X473075Y508318D02*
X473077Y508422D01*
X473083Y508527D01*
X473092Y508631D01*
X473105Y508734D01*
X473123Y508837D01*
X473143Y508939D01*
X473168Y509041D01*
X473196Y509141D01*
X473228Y509241D01*
X473264Y509339D01*
X473303Y509436D01*
X473345Y509531D01*
X473391Y509625D01*
X473441Y509717D01*
X473493Y509807D01*
X473549Y509895D01*
X473609Y509981D01*
X473671Y510065D01*
X473736Y510146D01*
X473804Y510225D01*
X473876Y510302D01*
X473949Y510375D01*
X474026Y510447D01*
X474105Y510515D01*
X474186Y510580D01*
X474270Y510642D01*
X474356Y510702D01*
X474444Y510758D01*
X474534Y510810D01*
X474626Y510860D01*
X474720Y510906D01*
X474815Y510948D01*
X474912Y510987D01*
X475010Y511023D01*
X475110Y511055D01*
X475210Y511083D01*
X475312Y511108D01*
X475414Y511128D01*
X475517Y511146D01*
X475620Y511159D01*
X475724Y511168D01*
X475829Y511174D01*
X475933Y511176D01*
X473075Y508318D02*
X473077Y508200D01*
X473083Y508081D01*
X473092Y507963D01*
X473105Y507846D01*
X473123Y507729D01*
X473143Y507612D01*
X473168Y507496D01*
X473196Y507381D01*
X473229Y507268D01*
X473264Y507155D01*
X473304Y507043D01*
X473346Y506933D01*
X473393Y506824D01*
X473443Y506716D01*
X473496Y506611D01*
X473553Y506507D01*
X473613Y506405D01*
X473676Y506305D01*
X473743Y506207D01*
X473812Y506111D01*
X473885Y506018D01*
X473961Y505927D01*
X474039Y505838D01*
X474121Y505752D01*
X474205Y505669D01*
X474291Y505588D01*
X474381Y505511D01*
X474472Y505436D01*
X474566Y505364D01*
X474663Y505295D01*
X474761Y505230D01*
X474862Y505167D01*
X474965Y505108D01*
X475069Y505052D01*
X475175Y505000D01*
X475283Y504951D01*
X475392Y504906D01*
X475503Y504864D01*
X475615Y504826D01*
X478155Y510223D02*
X478080Y510299D01*
X478001Y510374D01*
X477920Y510445D01*
X477836Y510514D01*
X477750Y510579D01*
X477662Y510641D01*
X477572Y510701D01*
X477480Y510757D01*
X477385Y510810D01*
X477289Y510859D01*
X477191Y510905D01*
X477092Y510948D01*
X476991Y510987D01*
X476889Y511022D01*
X476786Y511054D01*
X476682Y511082D01*
X476577Y511107D01*
X476470Y511128D01*
X476364Y511145D01*
X476257Y511158D01*
X476149Y511167D01*
X476041Y511173D01*
X475933Y511175D01*
X478155Y510223D02*
X484505Y504825D01*
X484505Y511175D01*
D12*
X444500Y477520D03*
D10*
X491490Y508000D02*
X491490Y609600D01*
X549910Y609600D02*
X549910Y508000D01*
X549910Y609600D02*
X491490Y609600D01*
X491490Y508000D02*
X510540Y508000D01*
X530860Y508000D02*
X549910Y508000D01*
X530860Y508000D02*
X530857Y508247D01*
X530848Y508495D01*
X530833Y508742D01*
X530812Y508988D01*
X530785Y509234D01*
X530752Y509479D01*
X530713Y509724D01*
X530668Y509967D01*
X530617Y510209D01*
X530560Y510450D01*
X530498Y510689D01*
X530429Y510927D01*
X530355Y511163D01*
X530275Y511397D01*
X530190Y511629D01*
X530098Y511859D01*
X530002Y512087D01*
X529899Y512312D01*
X529792Y512535D01*
X529678Y512755D01*
X529560Y512972D01*
X529436Y513187D01*
X529307Y513398D01*
X529173Y513606D01*
X529034Y513811D01*
X528890Y514012D01*
X528742Y514210D01*
X528588Y514404D01*
X528430Y514594D01*
X528267Y514780D01*
X528100Y514962D01*
X527928Y515140D01*
X527752Y515314D01*
X527572Y515484D01*
X527387Y515649D01*
X527199Y515809D01*
X527007Y515965D01*
X526811Y516117D01*
X526612Y516263D01*
X526409Y516405D01*
X526202Y516541D01*
X525993Y516673D01*
X525780Y516799D01*
X525564Y516920D01*
X525346Y517036D01*
X525124Y517146D01*
X524900Y517251D01*
X524674Y517351D01*
X524445Y517445D01*
X524214Y517533D01*
X523980Y517616D01*
X523745Y517693D01*
X523508Y517764D01*
X523270Y517830D01*
X523030Y517889D01*
X522788Y517943D01*
X522545Y517991D01*
X522302Y518033D01*
X522057Y518069D01*
X521811Y518099D01*
X521565Y518123D01*
X521318Y518141D01*
X521071Y518153D01*
X520824Y518159D01*
X520576Y518159D01*
X520329Y518153D01*
X520082Y518141D01*
X519835Y518123D01*
X519589Y518099D01*
X519343Y518069D01*
X519098Y518033D01*
X518855Y517991D01*
X518612Y517943D01*
X518370Y517889D01*
X518130Y517830D01*
X517892Y517764D01*
X517655Y517693D01*
X517420Y517616D01*
X517186Y517533D01*
X516955Y517445D01*
X516726Y517351D01*
X516500Y517251D01*
X516276Y517146D01*
X516054Y517036D01*
X515836Y516920D01*
X515620Y516799D01*
X515407Y516673D01*
X515198Y516541D01*
X514991Y516405D01*
X514788Y516263D01*
X514589Y516117D01*
X514393Y515965D01*
X514201Y515809D01*
X514013Y515649D01*
X513828Y515484D01*
X513648Y515314D01*
X513472Y515140D01*
X513300Y514962D01*
X513133Y514780D01*
X512970Y514594D01*
X512812Y514404D01*
X512658Y514210D01*
X512510Y514012D01*
X512366Y513811D01*
X512227Y513606D01*
X512093Y513398D01*
X511964Y513187D01*
X511840Y512972D01*
X511722Y512755D01*
X511608Y512535D01*
X511501Y512312D01*
X511398Y512087D01*
X511302Y511859D01*
X511210Y511629D01*
X511125Y511397D01*
X511045Y511163D01*
X510971Y510927D01*
X510902Y510689D01*
X510840Y510450D01*
X510783Y510209D01*
X510732Y509967D01*
X510687Y509724D01*
X510648Y509479D01*
X510615Y509234D01*
X510588Y508988D01*
X510567Y508742D01*
X510552Y508495D01*
X510543Y508247D01*
X510540Y508000D01*
D11*
X527431Y504825D02*
X527431Y493395D01*
X526161Y493395D02*
X528701Y493395D01*
X528701Y504825D02*
X526161Y504825D01*
X535903Y493395D02*
X538443Y493395D01*
X535903Y493395D02*
X535803Y493397D01*
X535704Y493403D01*
X535604Y493413D01*
X535506Y493426D01*
X535407Y493444D01*
X535310Y493465D01*
X535214Y493490D01*
X535118Y493519D01*
X535024Y493552D01*
X534931Y493588D01*
X534840Y493628D01*
X534750Y493672D01*
X534662Y493719D01*
X534576Y493769D01*
X534492Y493823D01*
X534410Y493880D01*
X534331Y493940D01*
X534253Y494004D01*
X534179Y494070D01*
X534107Y494139D01*
X534038Y494211D01*
X533972Y494285D01*
X533908Y494363D01*
X533848Y494442D01*
X533791Y494524D01*
X533737Y494608D01*
X533687Y494694D01*
X533640Y494782D01*
X533596Y494872D01*
X533556Y494963D01*
X533520Y495056D01*
X533487Y495150D01*
X533458Y495246D01*
X533433Y495342D01*
X533412Y495439D01*
X533394Y495538D01*
X533381Y495636D01*
X533371Y495736D01*
X533365Y495835D01*
X533363Y495935D01*
X533363Y502285D01*
X533365Y502385D01*
X533371Y502484D01*
X533381Y502584D01*
X533394Y502682D01*
X533412Y502781D01*
X533433Y502878D01*
X533458Y502974D01*
X533487Y503070D01*
X533520Y503164D01*
X533556Y503257D01*
X533596Y503348D01*
X533640Y503438D01*
X533687Y503526D01*
X533737Y503612D01*
X533791Y503696D01*
X533848Y503778D01*
X533908Y503857D01*
X533972Y503935D01*
X534038Y504009D01*
X534107Y504081D01*
X534179Y504150D01*
X534253Y504216D01*
X534331Y504280D01*
X534410Y504340D01*
X534492Y504397D01*
X534576Y504451D01*
X534662Y504501D01*
X534750Y504548D01*
X534840Y504592D01*
X534931Y504632D01*
X535024Y504668D01*
X535118Y504701D01*
X535214Y504730D01*
X535310Y504755D01*
X535407Y504776D01*
X535506Y504794D01*
X535604Y504807D01*
X535704Y504817D01*
X535803Y504823D01*
X535903Y504825D01*
X538443Y504825D01*
X542925Y502285D02*
X546100Y504825D01*
X546100Y493395D01*
X542925Y493395D02*
X549275Y493395D01*
D10*
X488950Y368300D02*
X476250Y368300D01*
X469900Y374650D01*
X469900Y387350D01*
X476250Y393700D01*
X469900Y374650D02*
X463550Y368300D01*
X450850Y368300D01*
X444500Y374650D01*
X444500Y387350D01*
X450850Y393700D01*
X463550Y393700D01*
X469900Y387350D01*
X495300Y387350D02*
X495300Y374650D01*
X488950Y368300D01*
X495300Y387350D02*
X488950Y393700D01*
X476250Y393700D01*
X444500Y374650D02*
X438150Y368300D01*
X425450Y368300D01*
X419100Y374650D01*
X419100Y387350D01*
X425450Y393700D01*
X438150Y393700D01*
X444500Y387350D01*
D11*
X472238Y362077D02*
X472238Y353187D01*
X472236Y353087D01*
X472230Y352988D01*
X472220Y352888D01*
X472207Y352790D01*
X472189Y352691D01*
X472168Y352594D01*
X472143Y352498D01*
X472114Y352402D01*
X472081Y352308D01*
X472045Y352215D01*
X472005Y352124D01*
X471961Y352034D01*
X471914Y351946D01*
X471864Y351860D01*
X471810Y351776D01*
X471753Y351694D01*
X471693Y351615D01*
X471629Y351537D01*
X471563Y351463D01*
X471494Y351391D01*
X471422Y351322D01*
X471348Y351256D01*
X471270Y351192D01*
X471191Y351132D01*
X471109Y351075D01*
X471025Y351021D01*
X470939Y350971D01*
X470851Y350924D01*
X470761Y350880D01*
X470670Y350840D01*
X470577Y350804D01*
X470483Y350771D01*
X470387Y350742D01*
X470291Y350717D01*
X470194Y350696D01*
X470095Y350678D01*
X469997Y350665D01*
X469897Y350655D01*
X469798Y350649D01*
X469698Y350647D01*
X468428Y350647D01*
X478219Y350647D02*
X478219Y362077D01*
X481394Y362077D01*
X481505Y362075D01*
X481615Y362069D01*
X481726Y362060D01*
X481836Y362046D01*
X481945Y362029D01*
X482054Y362008D01*
X482162Y361983D01*
X482269Y361954D01*
X482375Y361922D01*
X482480Y361886D01*
X482583Y361846D01*
X482685Y361803D01*
X482786Y361756D01*
X482885Y361705D01*
X482982Y361652D01*
X483076Y361595D01*
X483169Y361534D01*
X483260Y361471D01*
X483349Y361404D01*
X483435Y361334D01*
X483518Y361261D01*
X483600Y361186D01*
X483678Y361108D01*
X483753Y361026D01*
X483826Y360943D01*
X483896Y360857D01*
X483963Y360768D01*
X484026Y360677D01*
X484087Y360584D01*
X484144Y360489D01*
X484197Y360393D01*
X484248Y360294D01*
X484295Y360193D01*
X484338Y360091D01*
X484378Y359988D01*
X484414Y359883D01*
X484446Y359777D01*
X484475Y359670D01*
X484500Y359562D01*
X484521Y359453D01*
X484538Y359344D01*
X484552Y359234D01*
X484561Y359123D01*
X484567Y359013D01*
X484569Y358902D01*
X484567Y358791D01*
X484561Y358681D01*
X484552Y358570D01*
X484538Y358460D01*
X484521Y358351D01*
X484500Y358242D01*
X484475Y358134D01*
X484446Y358027D01*
X484414Y357921D01*
X484378Y357816D01*
X484338Y357713D01*
X484295Y357611D01*
X484248Y357510D01*
X484197Y357411D01*
X484144Y357314D01*
X484087Y357220D01*
X484026Y357127D01*
X483963Y357036D01*
X483896Y356947D01*
X483826Y356861D01*
X483753Y356778D01*
X483678Y356696D01*
X483600Y356618D01*
X483518Y356543D01*
X483435Y356470D01*
X483349Y356400D01*
X483260Y356333D01*
X483169Y356270D01*
X483076Y356209D01*
X482982Y356152D01*
X482885Y356099D01*
X482786Y356048D01*
X482685Y356001D01*
X482583Y355958D01*
X482480Y355918D01*
X482375Y355882D01*
X482269Y355850D01*
X482162Y355821D01*
X482054Y355796D01*
X481945Y355775D01*
X481836Y355758D01*
X481726Y355744D01*
X481615Y355735D01*
X481505Y355729D01*
X481394Y355727D01*
X478219Y355727D01*
X489077Y359537D02*
X492252Y362077D01*
X492252Y350647D01*
X489077Y350647D02*
X495427Y350647D01*
D13*
X590550Y393700D02*
X628650Y393700D01*
D14*
X629266Y394174D01*
X629871Y394663D01*
X630463Y395167D01*
X631043Y395685D01*
X631610Y396217D01*
X632164Y396763D01*
X632704Y397322D01*
X633230Y397895D01*
X633743Y398480D01*
X634240Y399077D01*
X634723Y399686D01*
X635191Y400307D01*
X635644Y400940D01*
X636081Y401583D01*
X636502Y402237D01*
X636906Y402901D01*
X637295Y403574D01*
X637667Y404257D01*
X638022Y404949D01*
X638360Y405649D01*
X638681Y406357D01*
X638984Y407073D01*
X639270Y407797D01*
X639538Y408526D01*
X639788Y409263D01*
X640019Y410005D01*
X640233Y410753D01*
X640428Y411505D01*
X640605Y412263D01*
X640763Y413024D01*
X640903Y413789D01*
X641023Y414557D01*
X641125Y415328D01*
X641208Y416101D01*
X641272Y416876D01*
X641317Y417652D01*
X641343Y418429D01*
X641350Y419207D01*
X641338Y419984D01*
X641307Y420761D01*
X641256Y421537D01*
X641187Y422312D01*
X641099Y423084D01*
X640992Y423854D01*
X640866Y424622D01*
X640722Y425386D01*
X640558Y426146D01*
X640376Y426902D01*
X640176Y427653D01*
X639958Y428400D01*
X639721Y429140D01*
X639466Y429875D01*
X639193Y430603D01*
X638902Y431324D01*
X638594Y432038D01*
X638269Y432744D01*
X637926Y433442D01*
X637566Y434132D01*
X637190Y434812D01*
X636797Y435483D01*
X636387Y436144D01*
X635962Y436795D01*
X635521Y437435D01*
X635064Y438064D01*
X634592Y438682D01*
X634105Y439288D01*
X633603Y439882D01*
X633087Y440464D01*
X632557Y441033D01*
X632013Y441588D01*
X631455Y442131D01*
X630885Y442659D01*
X630302Y443173D01*
X629706Y443673D01*
X629098Y444158D01*
X628479Y444628D01*
X627848Y445082D01*
X627206Y445521D01*
X626554Y445945D01*
X625891Y446352D01*
X625219Y446743D01*
X624537Y447117D01*
X623847Y447474D01*
X623148Y447814D01*
X622440Y448138D01*
X621726Y448443D01*
X621003Y448732D01*
X620274Y449002D01*
X619539Y449254D01*
X618797Y449489D01*
X618050Y449705D01*
X617298Y449903D01*
X616542Y450082D01*
X615781Y450243D01*
X615017Y450385D01*
X614249Y450508D01*
X613478Y450612D01*
X612705Y450698D01*
X611931Y450764D01*
X611155Y450812D01*
X610378Y450840D01*
X609600Y450850D01*
X608822Y450840D01*
X608045Y450812D01*
X607269Y450764D01*
X606495Y450698D01*
X605722Y450612D01*
X604951Y450508D01*
X604183Y450385D01*
X603419Y450243D01*
X602658Y450082D01*
X601902Y449903D01*
X601150Y449705D01*
X600403Y449489D01*
X599661Y449254D01*
X598926Y449002D01*
X598197Y448732D01*
X597474Y448443D01*
X596760Y448138D01*
X596052Y447814D01*
X595353Y447474D01*
X594663Y447117D01*
X593981Y446743D01*
X593309Y446352D01*
X592646Y445945D01*
X591994Y445521D01*
X591352Y445082D01*
X590721Y444628D01*
X590102Y444158D01*
X589494Y443673D01*
X588898Y443173D01*
X588315Y442659D01*
X587745Y442131D01*
X587187Y441588D01*
X586643Y441033D01*
X586113Y440464D01*
X585597Y439882D01*
X585095Y439288D01*
X584608Y438682D01*
X584136Y438064D01*
X583679Y437435D01*
X583238Y436795D01*
X582813Y436144D01*
X582403Y435483D01*
X582010Y434812D01*
X581634Y434132D01*
X581274Y433442D01*
X580931Y432744D01*
X580606Y432038D01*
X580298Y431324D01*
X580007Y430603D01*
X579734Y429875D01*
X579479Y429140D01*
X579242Y428400D01*
X579024Y427653D01*
X578824Y426902D01*
X578642Y426146D01*
X578478Y425386D01*
X578334Y424622D01*
X578208Y423854D01*
X578101Y423084D01*
X578013Y422312D01*
X577944Y421537D01*
X577893Y420761D01*
X577862Y419984D01*
X577850Y419207D01*
X577857Y418429D01*
X577883Y417652D01*
X577928Y416876D01*
X577992Y416101D01*
X578075Y415328D01*
X578177Y414557D01*
X578297Y413789D01*
X578437Y413024D01*
X578595Y412263D01*
X578772Y411505D01*
X578967Y410753D01*
X579181Y410005D01*
X579412Y409263D01*
X579662Y408526D01*
X579930Y407797D01*
X580216Y407073D01*
X580519Y406357D01*
X580840Y405649D01*
X581178Y404949D01*
X581533Y404257D01*
X581905Y403574D01*
X582294Y402901D01*
X582698Y402237D01*
X583119Y401583D01*
X583556Y400940D01*
X584009Y400307D01*
X584477Y399686D01*
X584960Y399077D01*
X585457Y398480D01*
X585970Y397895D01*
X586496Y397322D01*
X587036Y396763D01*
X587590Y396217D01*
X588157Y395685D01*
X588737Y395167D01*
X589329Y394663D01*
X589934Y394174D01*
X590550Y393700D01*
D10*
X584200Y419100D02*
X584208Y419723D01*
X584231Y420346D01*
X584269Y420969D01*
X584322Y421590D01*
X584391Y422209D01*
X584475Y422827D01*
X584574Y423442D01*
X584688Y424055D01*
X584817Y424665D01*
X584961Y425272D01*
X585120Y425875D01*
X585294Y426473D01*
X585482Y427068D01*
X585685Y427657D01*
X585902Y428241D01*
X586133Y428820D01*
X586379Y429393D01*
X586639Y429960D01*
X586912Y430520D01*
X587199Y431073D01*
X587500Y431620D01*
X587814Y432158D01*
X588141Y432689D01*
X588481Y433211D01*
X588833Y433726D01*
X589199Y434231D01*
X589576Y434727D01*
X589966Y435214D01*
X590367Y435691D01*
X590780Y436158D01*
X591204Y436614D01*
X591639Y437061D01*
X592086Y437496D01*
X592542Y437920D01*
X593009Y438333D01*
X593486Y438734D01*
X593973Y439124D01*
X594469Y439501D01*
X594974Y439867D01*
X595489Y440219D01*
X596011Y440559D01*
X596542Y440886D01*
X597080Y441200D01*
X597627Y441501D01*
X598180Y441788D01*
X598740Y442061D01*
X599307Y442321D01*
X599880Y442567D01*
X600459Y442798D01*
X601043Y443015D01*
X601632Y443218D01*
X602227Y443406D01*
X602825Y443580D01*
X603428Y443739D01*
X604035Y443883D01*
X604645Y444012D01*
X605258Y444126D01*
X605873Y444225D01*
X606491Y444309D01*
X607110Y444378D01*
X607731Y444431D01*
X608354Y444469D01*
X608977Y444492D01*
X609600Y444500D01*
X610223Y444492D01*
X610846Y444469D01*
X611469Y444431D01*
X612090Y444378D01*
X612709Y444309D01*
X613327Y444225D01*
X613942Y444126D01*
X614555Y444012D01*
X615165Y443883D01*
X615772Y443739D01*
X616375Y443580D01*
X616973Y443406D01*
X617568Y443218D01*
X618157Y443015D01*
X618741Y442798D01*
X619320Y442567D01*
X619893Y442321D01*
X620460Y442061D01*
X621020Y441788D01*
X621573Y441501D01*
X622120Y441200D01*
X622658Y440886D01*
X623189Y440559D01*
X623711Y440219D01*
X624226Y439867D01*
X624731Y439501D01*
X625227Y439124D01*
X625714Y438734D01*
X626191Y438333D01*
X626658Y437920D01*
X627114Y437496D01*
X627561Y437061D01*
X627996Y436614D01*
X628420Y436158D01*
X628833Y435691D01*
X629234Y435214D01*
X629624Y434727D01*
X630001Y434231D01*
X630367Y433726D01*
X630719Y433211D01*
X631059Y432689D01*
X631386Y432158D01*
X631700Y431620D01*
X632001Y431073D01*
X632288Y430520D01*
X632561Y429960D01*
X632821Y429393D01*
X633067Y428820D01*
X633298Y428241D01*
X633515Y427657D01*
X633718Y427068D01*
X633906Y426473D01*
X634080Y425875D01*
X634239Y425272D01*
X634383Y424665D01*
X634512Y424055D01*
X634626Y423442D01*
X634725Y422827D01*
X634809Y422209D01*
X634878Y421590D01*
X634931Y420969D01*
X634969Y420346D01*
X634992Y419723D01*
X635000Y419100D01*
X634992Y418477D01*
X634969Y417854D01*
X634931Y417231D01*
X634878Y416610D01*
X634809Y415991D01*
X634725Y415373D01*
X634626Y414758D01*
X634512Y414145D01*
X634383Y413535D01*
X634239Y412928D01*
X634080Y412325D01*
X633906Y411727D01*
X633718Y411132D01*
X633515Y410543D01*
X633298Y409959D01*
X633067Y409380D01*
X632821Y408807D01*
X632561Y408240D01*
X632288Y407680D01*
X632001Y407127D01*
X631700Y406580D01*
X631386Y406042D01*
X631059Y405511D01*
X630719Y404989D01*
X630367Y404474D01*
X630001Y403969D01*
X629624Y403473D01*
X629234Y402986D01*
X628833Y402509D01*
X628420Y402042D01*
X627996Y401586D01*
X627561Y401139D01*
X627114Y400704D01*
X626658Y400280D01*
X626191Y399867D01*
X625714Y399466D01*
X625227Y399076D01*
X624731Y398699D01*
X624226Y398333D01*
X623711Y397981D01*
X623189Y397641D01*
X622658Y397314D01*
X622120Y397000D01*
X621573Y396699D01*
X621020Y396412D01*
X620460Y396139D01*
X619893Y395879D01*
X619320Y395633D01*
X618741Y395402D01*
X618157Y395185D01*
X617568Y394982D01*
X616973Y394794D01*
X616375Y394620D01*
X615772Y394461D01*
X615165Y394317D01*
X614555Y394188D01*
X613942Y394074D01*
X613327Y393975D01*
X612709Y393891D01*
X612090Y393822D01*
X611469Y393769D01*
X610846Y393731D01*
X610223Y393708D01*
X609600Y393700D01*
X608977Y393708D01*
X608354Y393731D01*
X607731Y393769D01*
X607110Y393822D01*
X606491Y393891D01*
X605873Y393975D01*
X605258Y394074D01*
X604645Y394188D01*
X604035Y394317D01*
X603428Y394461D01*
X602825Y394620D01*
X602227Y394794D01*
X601632Y394982D01*
X601043Y395185D01*
X600459Y395402D01*
X599880Y395633D01*
X599307Y395879D01*
X598740Y396139D01*
X598180Y396412D01*
X597627Y396699D01*
X597080Y397000D01*
X596542Y397314D01*
X596011Y397641D01*
X595489Y397981D01*
X594974Y398333D01*
X594469Y398699D01*
X593973Y399076D01*
X593486Y399466D01*
X593009Y399867D01*
X592542Y400280D01*
X592086Y400704D01*
X591639Y401139D01*
X591204Y401586D01*
X590780Y402042D01*
X590367Y402509D01*
X589966Y402986D01*
X589576Y403473D01*
X589199Y403969D01*
X588833Y404474D01*
X588481Y404989D01*
X588141Y405511D01*
X587814Y406042D01*
X587500Y406580D01*
X587199Y407127D01*
X586912Y407680D01*
X586639Y408240D01*
X586379Y408807D01*
X586133Y409380D01*
X585902Y409959D01*
X585685Y410543D01*
X585482Y411132D01*
X585294Y411727D01*
X585120Y412325D01*
X584961Y412928D01*
X584817Y413535D01*
X584688Y414145D01*
X584574Y414758D01*
X584475Y415373D01*
X584391Y415991D01*
X584322Y416610D01*
X584269Y417231D01*
X584231Y417854D01*
X584208Y418477D01*
X584200Y419100D01*
D11*
X615569Y348767D02*
X626999Y348767D01*
X626999Y353847D01*
X626999Y358673D02*
X626999Y363753D01*
X626999Y358673D02*
X615569Y358673D01*
X615569Y363753D01*
X620649Y362483D02*
X620649Y358673D01*
X615569Y368554D02*
X626999Y368554D01*
X615569Y368554D02*
X615569Y371729D01*
X615571Y371840D01*
X615577Y371950D01*
X615586Y372061D01*
X615600Y372171D01*
X615617Y372280D01*
X615638Y372389D01*
X615663Y372497D01*
X615692Y372604D01*
X615724Y372710D01*
X615760Y372815D01*
X615800Y372918D01*
X615843Y373020D01*
X615890Y373121D01*
X615941Y373220D01*
X615994Y373317D01*
X616051Y373411D01*
X616112Y373504D01*
X616175Y373595D01*
X616242Y373684D01*
X616312Y373770D01*
X616385Y373853D01*
X616460Y373935D01*
X616538Y374013D01*
X616620Y374088D01*
X616703Y374161D01*
X616789Y374231D01*
X616878Y374298D01*
X616969Y374361D01*
X617062Y374422D01*
X617157Y374479D01*
X617253Y374532D01*
X617352Y374583D01*
X617453Y374630D01*
X617555Y374673D01*
X617658Y374713D01*
X617763Y374749D01*
X617869Y374781D01*
X617976Y374810D01*
X618084Y374835D01*
X618193Y374856D01*
X618302Y374873D01*
X618412Y374887D01*
X618523Y374896D01*
X618633Y374902D01*
X618744Y374904D01*
X623824Y374904D01*
X623935Y374902D01*
X624045Y374896D01*
X624156Y374887D01*
X624266Y374873D01*
X624375Y374856D01*
X624484Y374835D01*
X624592Y374810D01*
X624699Y374781D01*
X624805Y374749D01*
X624910Y374713D01*
X625013Y374673D01*
X625115Y374630D01*
X625216Y374583D01*
X625315Y374532D01*
X625412Y374479D01*
X625506Y374422D01*
X625599Y374361D01*
X625690Y374298D01*
X625779Y374231D01*
X625865Y374161D01*
X625948Y374088D01*
X626030Y374013D01*
X626108Y373935D01*
X626183Y373853D01*
X626256Y373770D01*
X626326Y373684D01*
X626393Y373595D01*
X626456Y373504D01*
X626517Y373411D01*
X626574Y373317D01*
X626627Y373220D01*
X626678Y373121D01*
X626725Y373020D01*
X626768Y372918D01*
X626808Y372815D01*
X626844Y372710D01*
X626876Y372604D01*
X626905Y372497D01*
X626930Y372389D01*
X626951Y372280D01*
X626968Y372171D01*
X626982Y372061D01*
X626991Y371950D01*
X626997Y371840D01*
X626999Y371729D01*
X626999Y368554D01*
X618109Y380365D02*
X615569Y383540D01*
X626999Y383540D01*
X626999Y380365D02*
X626999Y386715D01*
D13*
X628650Y546100D02*
X590550Y546100D01*
D14*
X589934Y546574D01*
X589329Y547063D01*
X588737Y547567D01*
X588157Y548085D01*
X587590Y548617D01*
X587036Y549163D01*
X586496Y549722D01*
X585970Y550295D01*
X585457Y550880D01*
X584960Y551477D01*
X584477Y552086D01*
X584009Y552707D01*
X583556Y553340D01*
X583119Y553983D01*
X582698Y554637D01*
X582294Y555301D01*
X581905Y555974D01*
X581533Y556657D01*
X581178Y557349D01*
X580840Y558049D01*
X580519Y558757D01*
X580216Y559473D01*
X579930Y560197D01*
X579662Y560926D01*
X579412Y561663D01*
X579181Y562405D01*
X578967Y563153D01*
X578772Y563905D01*
X578595Y564663D01*
X578437Y565424D01*
X578297Y566189D01*
X578177Y566957D01*
X578075Y567728D01*
X577992Y568501D01*
X577928Y569276D01*
X577883Y570052D01*
X577857Y570829D01*
X577850Y571607D01*
X577862Y572384D01*
X577893Y573161D01*
X577944Y573937D01*
X578013Y574712D01*
X578101Y575484D01*
X578208Y576254D01*
X578334Y577022D01*
X578478Y577786D01*
X578642Y578546D01*
X578824Y579302D01*
X579024Y580053D01*
X579242Y580800D01*
X579479Y581540D01*
X579734Y582275D01*
X580007Y583003D01*
X580298Y583724D01*
X580606Y584438D01*
X580931Y585144D01*
X581274Y585842D01*
X581634Y586532D01*
X582010Y587212D01*
X582403Y587883D01*
X582813Y588544D01*
X583238Y589195D01*
X583679Y589835D01*
X584136Y590464D01*
X584608Y591082D01*
X585095Y591688D01*
X585597Y592282D01*
X586113Y592864D01*
X586643Y593433D01*
X587187Y593988D01*
X587745Y594531D01*
X588315Y595059D01*
X588898Y595573D01*
X589494Y596073D01*
X590102Y596558D01*
X590721Y597028D01*
X591352Y597482D01*
X591994Y597921D01*
X592646Y598345D01*
X593309Y598752D01*
X593981Y599143D01*
X594663Y599517D01*
X595353Y599874D01*
X596052Y600214D01*
X596760Y600538D01*
X597474Y600843D01*
X598197Y601132D01*
X598926Y601402D01*
X599661Y601654D01*
X600403Y601889D01*
X601150Y602105D01*
X601902Y602303D01*
X602658Y602482D01*
X603419Y602643D01*
X604183Y602785D01*
X604951Y602908D01*
X605722Y603012D01*
X606495Y603098D01*
X607269Y603164D01*
X608045Y603212D01*
X608822Y603240D01*
X609600Y603250D01*
X610378Y603240D01*
X611155Y603212D01*
X611931Y603164D01*
X612705Y603098D01*
X613478Y603012D01*
X614249Y602908D01*
X615017Y602785D01*
X615781Y602643D01*
X616542Y602482D01*
X617298Y602303D01*
X618050Y602105D01*
X618797Y601889D01*
X619539Y601654D01*
X620274Y601402D01*
X621003Y601132D01*
X621726Y600843D01*
X622440Y600538D01*
X623148Y600214D01*
X623847Y599874D01*
X624537Y599517D01*
X625219Y599143D01*
X625891Y598752D01*
X626554Y598345D01*
X627206Y597921D01*
X627848Y597482D01*
X628479Y597028D01*
X629098Y596558D01*
X629706Y596073D01*
X630302Y595573D01*
X630885Y595059D01*
X631455Y594531D01*
X632013Y593988D01*
X632557Y593433D01*
X633087Y592864D01*
X633603Y592282D01*
X634105Y591688D01*
X634592Y591082D01*
X635064Y590464D01*
X635521Y589835D01*
X635962Y589195D01*
X636387Y588544D01*
X636797Y587883D01*
X637190Y587212D01*
X637566Y586532D01*
X637926Y585842D01*
X638269Y585144D01*
X638594Y584438D01*
X638902Y583724D01*
X639193Y583003D01*
X639466Y582275D01*
X639721Y581540D01*
X639958Y580800D01*
X640176Y580053D01*
X640376Y579302D01*
X640558Y578546D01*
X640722Y577786D01*
X640866Y577022D01*
X640992Y576254D01*
X641099Y575484D01*
X641187Y574712D01*
X641256Y573937D01*
X641307Y573161D01*
X641338Y572384D01*
X641350Y571607D01*
X641343Y570829D01*
X641317Y570052D01*
X641272Y569276D01*
X641208Y568501D01*
X641125Y567728D01*
X641023Y566957D01*
X640903Y566189D01*
X640763Y565424D01*
X640605Y564663D01*
X640428Y563905D01*
X640233Y563153D01*
X640019Y562405D01*
X639788Y561663D01*
X639538Y560926D01*
X639270Y560197D01*
X638984Y559473D01*
X638681Y558757D01*
X638360Y558049D01*
X638022Y557349D01*
X637667Y556657D01*
X637295Y555974D01*
X636906Y555301D01*
X636502Y554637D01*
X636081Y553983D01*
X635644Y553340D01*
X635191Y552707D01*
X634723Y552086D01*
X634240Y551477D01*
X633743Y550880D01*
X633230Y550295D01*
X632704Y549722D01*
X632164Y549163D01*
X631610Y548617D01*
X631043Y548085D01*
X630463Y547567D01*
X629871Y547063D01*
X629266Y546574D01*
X628650Y546100D01*
D10*
X584200Y571500D02*
X584208Y572123D01*
X584231Y572746D01*
X584269Y573369D01*
X584322Y573990D01*
X584391Y574609D01*
X584475Y575227D01*
X584574Y575842D01*
X584688Y576455D01*
X584817Y577065D01*
X584961Y577672D01*
X585120Y578275D01*
X585294Y578873D01*
X585482Y579468D01*
X585685Y580057D01*
X585902Y580641D01*
X586133Y581220D01*
X586379Y581793D01*
X586639Y582360D01*
X586912Y582920D01*
X587199Y583473D01*
X587500Y584020D01*
X587814Y584558D01*
X588141Y585089D01*
X588481Y585611D01*
X588833Y586126D01*
X589199Y586631D01*
X589576Y587127D01*
X589966Y587614D01*
X590367Y588091D01*
X590780Y588558D01*
X591204Y589014D01*
X591639Y589461D01*
X592086Y589896D01*
X592542Y590320D01*
X593009Y590733D01*
X593486Y591134D01*
X593973Y591524D01*
X594469Y591901D01*
X594974Y592267D01*
X595489Y592619D01*
X596011Y592959D01*
X596542Y593286D01*
X597080Y593600D01*
X597627Y593901D01*
X598180Y594188D01*
X598740Y594461D01*
X599307Y594721D01*
X599880Y594967D01*
X600459Y595198D01*
X601043Y595415D01*
X601632Y595618D01*
X602227Y595806D01*
X602825Y595980D01*
X603428Y596139D01*
X604035Y596283D01*
X604645Y596412D01*
X605258Y596526D01*
X605873Y596625D01*
X606491Y596709D01*
X607110Y596778D01*
X607731Y596831D01*
X608354Y596869D01*
X608977Y596892D01*
X609600Y596900D01*
X610223Y596892D01*
X610846Y596869D01*
X611469Y596831D01*
X612090Y596778D01*
X612709Y596709D01*
X613327Y596625D01*
X613942Y596526D01*
X614555Y596412D01*
X615165Y596283D01*
X615772Y596139D01*
X616375Y595980D01*
X616973Y595806D01*
X617568Y595618D01*
X618157Y595415D01*
X618741Y595198D01*
X619320Y594967D01*
X619893Y594721D01*
X620460Y594461D01*
X621020Y594188D01*
X621573Y593901D01*
X622120Y593600D01*
X622658Y593286D01*
X623189Y592959D01*
X623711Y592619D01*
X624226Y592267D01*
X624731Y591901D01*
X625227Y591524D01*
X625714Y591134D01*
X626191Y590733D01*
X626658Y590320D01*
X627114Y589896D01*
X627561Y589461D01*
X627996Y589014D01*
X628420Y588558D01*
X628833Y588091D01*
X629234Y587614D01*
X629624Y587127D01*
X630001Y586631D01*
X630367Y586126D01*
X630719Y585611D01*
X631059Y585089D01*
X631386Y584558D01*
X631700Y584020D01*
X632001Y583473D01*
X632288Y582920D01*
X632561Y582360D01*
X632821Y581793D01*
X633067Y581220D01*
X633298Y580641D01*
X633515Y580057D01*
X633718Y579468D01*
X633906Y578873D01*
X634080Y578275D01*
X634239Y577672D01*
X634383Y577065D01*
X634512Y576455D01*
X634626Y575842D01*
X634725Y575227D01*
X634809Y574609D01*
X634878Y573990D01*
X634931Y573369D01*
X634969Y572746D01*
X634992Y572123D01*
X635000Y571500D01*
X634992Y570877D01*
X634969Y570254D01*
X634931Y569631D01*
X634878Y569010D01*
X634809Y568391D01*
X634725Y567773D01*
X634626Y567158D01*
X634512Y566545D01*
X634383Y565935D01*
X634239Y565328D01*
X634080Y564725D01*
X633906Y564127D01*
X633718Y563532D01*
X633515Y562943D01*
X633298Y562359D01*
X633067Y561780D01*
X632821Y561207D01*
X632561Y560640D01*
X632288Y560080D01*
X632001Y559527D01*
X631700Y558980D01*
X631386Y558442D01*
X631059Y557911D01*
X630719Y557389D01*
X630367Y556874D01*
X630001Y556369D01*
X629624Y555873D01*
X629234Y555386D01*
X628833Y554909D01*
X628420Y554442D01*
X627996Y553986D01*
X627561Y553539D01*
X627114Y553104D01*
X626658Y552680D01*
X626191Y552267D01*
X625714Y551866D01*
X625227Y551476D01*
X624731Y551099D01*
X624226Y550733D01*
X623711Y550381D01*
X623189Y550041D01*
X622658Y549714D01*
X622120Y549400D01*
X621573Y549099D01*
X621020Y548812D01*
X620460Y548539D01*
X619893Y548279D01*
X619320Y548033D01*
X618741Y547802D01*
X618157Y547585D01*
X617568Y547382D01*
X616973Y547194D01*
X616375Y547020D01*
X615772Y546861D01*
X615165Y546717D01*
X614555Y546588D01*
X613942Y546474D01*
X613327Y546375D01*
X612709Y546291D01*
X612090Y546222D01*
X611469Y546169D01*
X610846Y546131D01*
X610223Y546108D01*
X609600Y546100D01*
X608977Y546108D01*
X608354Y546131D01*
X607731Y546169D01*
X607110Y546222D01*
X606491Y546291D01*
X605873Y546375D01*
X605258Y546474D01*
X604645Y546588D01*
X604035Y546717D01*
X603428Y546861D01*
X602825Y547020D01*
X602227Y547194D01*
X601632Y547382D01*
X601043Y547585D01*
X600459Y547802D01*
X599880Y548033D01*
X599307Y548279D01*
X598740Y548539D01*
X598180Y548812D01*
X597627Y549099D01*
X597080Y549400D01*
X596542Y549714D01*
X596011Y550041D01*
X595489Y550381D01*
X594974Y550733D01*
X594469Y551099D01*
X593973Y551476D01*
X593486Y551866D01*
X593009Y552267D01*
X592542Y552680D01*
X592086Y553104D01*
X591639Y553539D01*
X591204Y553986D01*
X590780Y554442D01*
X590367Y554909D01*
X589966Y555386D01*
X589576Y555873D01*
X589199Y556369D01*
X588833Y556874D01*
X588481Y557389D01*
X588141Y557911D01*
X587814Y558442D01*
X587500Y558980D01*
X587199Y559527D01*
X586912Y560080D01*
X586639Y560640D01*
X586379Y561207D01*
X586133Y561780D01*
X585902Y562359D01*
X585685Y562943D01*
X585482Y563532D01*
X585294Y564127D01*
X585120Y564725D01*
X584961Y565328D01*
X584817Y565935D01*
X584688Y566545D01*
X584574Y567158D01*
X584475Y567773D01*
X584391Y568391D01*
X584322Y569010D01*
X584269Y569631D01*
X584231Y570254D01*
X584208Y570877D01*
X584200Y571500D01*
D11*
X615569Y501167D02*
X626999Y501167D01*
X626999Y506247D01*
X626999Y511073D02*
X626999Y516153D01*
X626999Y511073D02*
X615569Y511073D01*
X615569Y516153D01*
X620649Y514883D02*
X620649Y511073D01*
X615569Y520954D02*
X626999Y520954D01*
X615569Y520954D02*
X615569Y524129D01*
X615571Y524240D01*
X615577Y524350D01*
X615586Y524461D01*
X615600Y524571D01*
X615617Y524680D01*
X615638Y524789D01*
X615663Y524897D01*
X615692Y525004D01*
X615724Y525110D01*
X615760Y525215D01*
X615800Y525318D01*
X615843Y525420D01*
X615890Y525521D01*
X615941Y525620D01*
X615994Y525717D01*
X616051Y525811D01*
X616112Y525904D01*
X616175Y525995D01*
X616242Y526084D01*
X616312Y526170D01*
X616385Y526253D01*
X616460Y526335D01*
X616538Y526413D01*
X616620Y526488D01*
X616703Y526561D01*
X616789Y526631D01*
X616878Y526698D01*
X616969Y526761D01*
X617062Y526822D01*
X617157Y526879D01*
X617253Y526932D01*
X617352Y526983D01*
X617453Y527030D01*
X617555Y527073D01*
X617658Y527113D01*
X617763Y527149D01*
X617869Y527181D01*
X617976Y527210D01*
X618084Y527235D01*
X618193Y527256D01*
X618302Y527273D01*
X618412Y527287D01*
X618523Y527296D01*
X618633Y527302D01*
X618744Y527304D01*
X623824Y527304D01*
X623935Y527302D01*
X624045Y527296D01*
X624156Y527287D01*
X624266Y527273D01*
X624375Y527256D01*
X624484Y527235D01*
X624592Y527210D01*
X624699Y527181D01*
X624805Y527149D01*
X624910Y527113D01*
X625013Y527073D01*
X625115Y527030D01*
X625216Y526983D01*
X625315Y526932D01*
X625412Y526879D01*
X625506Y526822D01*
X625599Y526761D01*
X625690Y526698D01*
X625779Y526631D01*
X625865Y526561D01*
X625948Y526488D01*
X626030Y526413D01*
X626108Y526335D01*
X626183Y526253D01*
X626256Y526170D01*
X626326Y526084D01*
X626393Y525995D01*
X626456Y525904D01*
X626517Y525811D01*
X626574Y525717D01*
X626627Y525620D01*
X626678Y525521D01*
X626725Y525420D01*
X626768Y525318D01*
X626808Y525215D01*
X626844Y525110D01*
X626876Y525004D01*
X626905Y524897D01*
X626930Y524789D01*
X626951Y524680D01*
X626968Y524571D01*
X626982Y524461D01*
X626991Y524350D01*
X626997Y524240D01*
X626999Y524129D01*
X626999Y520954D01*
X615569Y536258D02*
X615571Y536362D01*
X615577Y536467D01*
X615586Y536571D01*
X615599Y536674D01*
X615617Y536777D01*
X615637Y536879D01*
X615662Y536981D01*
X615690Y537081D01*
X615722Y537181D01*
X615758Y537279D01*
X615797Y537376D01*
X615839Y537471D01*
X615885Y537565D01*
X615935Y537657D01*
X615987Y537747D01*
X616043Y537835D01*
X616103Y537921D01*
X616165Y538005D01*
X616230Y538086D01*
X616298Y538165D01*
X616370Y538242D01*
X616443Y538315D01*
X616520Y538387D01*
X616599Y538455D01*
X616680Y538520D01*
X616764Y538582D01*
X616850Y538642D01*
X616938Y538698D01*
X617028Y538750D01*
X617120Y538800D01*
X617214Y538846D01*
X617309Y538888D01*
X617406Y538927D01*
X617504Y538963D01*
X617604Y538995D01*
X617704Y539023D01*
X617806Y539048D01*
X617908Y539068D01*
X618011Y539086D01*
X618114Y539099D01*
X618218Y539108D01*
X618323Y539114D01*
X618427Y539116D01*
X615569Y536258D02*
X615571Y536140D01*
X615577Y536021D01*
X615586Y535903D01*
X615599Y535786D01*
X615617Y535669D01*
X615637Y535552D01*
X615662Y535436D01*
X615690Y535321D01*
X615723Y535208D01*
X615758Y535095D01*
X615798Y534983D01*
X615840Y534873D01*
X615887Y534764D01*
X615937Y534656D01*
X615990Y534551D01*
X616047Y534447D01*
X616107Y534345D01*
X616170Y534245D01*
X616237Y534147D01*
X616306Y534051D01*
X616379Y533958D01*
X616455Y533867D01*
X616533Y533778D01*
X616615Y533692D01*
X616699Y533609D01*
X616785Y533528D01*
X616875Y533451D01*
X616966Y533376D01*
X617060Y533304D01*
X617157Y533235D01*
X617255Y533170D01*
X617356Y533107D01*
X617459Y533048D01*
X617563Y532992D01*
X617669Y532940D01*
X617777Y532891D01*
X617886Y532846D01*
X617997Y532804D01*
X618109Y532766D01*
X620649Y538163D02*
X620574Y538239D01*
X620495Y538314D01*
X620414Y538385D01*
X620330Y538454D01*
X620244Y538519D01*
X620156Y538581D01*
X620066Y538641D01*
X619974Y538697D01*
X619879Y538750D01*
X619783Y538799D01*
X619685Y538845D01*
X619586Y538888D01*
X619485Y538927D01*
X619383Y538962D01*
X619280Y538994D01*
X619176Y539022D01*
X619071Y539047D01*
X618964Y539068D01*
X618858Y539085D01*
X618751Y539098D01*
X618643Y539107D01*
X618535Y539113D01*
X618427Y539115D01*
X620649Y538163D02*
X626999Y532765D01*
X626999Y539115D01*
D10*
X588010Y623570D02*
X588110Y623572D01*
X588209Y623578D01*
X588309Y623588D01*
X588407Y623601D01*
X588506Y623619D01*
X588603Y623640D01*
X588699Y623665D01*
X588795Y623694D01*
X588889Y623727D01*
X588982Y623763D01*
X589073Y623803D01*
X589163Y623847D01*
X589251Y623894D01*
X589337Y623944D01*
X589421Y623998D01*
X589503Y624055D01*
X589582Y624115D01*
X589660Y624179D01*
X589734Y624245D01*
X589806Y624314D01*
X589875Y624386D01*
X589941Y624460D01*
X590005Y624538D01*
X590065Y624617D01*
X590122Y624699D01*
X590176Y624783D01*
X590226Y624869D01*
X590273Y624957D01*
X590317Y625047D01*
X590357Y625138D01*
X590393Y625231D01*
X590426Y625325D01*
X590455Y625421D01*
X590480Y625517D01*
X590501Y625614D01*
X590519Y625713D01*
X590532Y625811D01*
X590542Y625911D01*
X590548Y626010D01*
X590550Y626110D01*
X590550Y643890D02*
X590548Y643990D01*
X590542Y644089D01*
X590532Y644189D01*
X590519Y644287D01*
X590501Y644386D01*
X590480Y644483D01*
X590455Y644579D01*
X590426Y644675D01*
X590393Y644769D01*
X590357Y644862D01*
X590317Y644953D01*
X590273Y645043D01*
X590226Y645131D01*
X590176Y645217D01*
X590122Y645301D01*
X590065Y645383D01*
X590005Y645462D01*
X589941Y645540D01*
X589875Y645614D01*
X589806Y645686D01*
X589734Y645755D01*
X589660Y645821D01*
X589582Y645885D01*
X589503Y645945D01*
X589421Y646002D01*
X589337Y646056D01*
X589251Y646106D01*
X589163Y646153D01*
X589073Y646197D01*
X588982Y646237D01*
X588889Y646273D01*
X588795Y646306D01*
X588699Y646335D01*
X588603Y646360D01*
X588506Y646381D01*
X588407Y646399D01*
X588309Y646412D01*
X588209Y646422D01*
X588110Y646428D01*
X588010Y646430D01*
X529590Y646430D02*
X529490Y646428D01*
X529391Y646422D01*
X529291Y646412D01*
X529193Y646399D01*
X529094Y646381D01*
X528997Y646360D01*
X528901Y646335D01*
X528805Y646306D01*
X528711Y646273D01*
X528618Y646237D01*
X528527Y646197D01*
X528437Y646153D01*
X528349Y646106D01*
X528263Y646056D01*
X528179Y646002D01*
X528097Y645945D01*
X528018Y645885D01*
X527940Y645821D01*
X527866Y645755D01*
X527794Y645686D01*
X527725Y645614D01*
X527659Y645540D01*
X527595Y645462D01*
X527535Y645383D01*
X527478Y645301D01*
X527424Y645217D01*
X527374Y645131D01*
X527327Y645043D01*
X527283Y644953D01*
X527243Y644862D01*
X527207Y644769D01*
X527174Y644675D01*
X527145Y644579D01*
X527120Y644483D01*
X527099Y644386D01*
X527081Y644287D01*
X527068Y644189D01*
X527058Y644089D01*
X527052Y643990D01*
X527050Y643890D01*
X527050Y626110D02*
X527052Y626010D01*
X527058Y625911D01*
X527068Y625811D01*
X527081Y625713D01*
X527099Y625614D01*
X527120Y625517D01*
X527145Y625421D01*
X527174Y625325D01*
X527207Y625231D01*
X527243Y625138D01*
X527283Y625047D01*
X527327Y624957D01*
X527374Y624869D01*
X527424Y624783D01*
X527478Y624699D01*
X527535Y624617D01*
X527595Y624538D01*
X527659Y624460D01*
X527725Y624386D01*
X527794Y624314D01*
X527866Y624245D01*
X527940Y624179D01*
X528018Y624115D01*
X528097Y624055D01*
X528179Y623998D01*
X528263Y623944D01*
X528349Y623894D01*
X528437Y623847D01*
X528527Y623803D01*
X528618Y623763D01*
X528711Y623727D01*
X528805Y623694D01*
X528901Y623665D01*
X528997Y623640D01*
X529094Y623619D01*
X529193Y623601D01*
X529291Y623588D01*
X529391Y623578D01*
X529490Y623572D01*
X529590Y623570D01*
X590550Y626110D02*
X590550Y643890D01*
X588010Y623570D02*
X584200Y623570D01*
X582930Y624840D01*
X584200Y646430D02*
X588010Y646430D01*
X584200Y646430D02*
X582930Y645160D01*
X534670Y624840D02*
X533400Y623570D01*
X534670Y624840D02*
X582930Y624840D01*
X534670Y645160D02*
X533400Y646430D01*
X534670Y645160D02*
X582930Y645160D01*
X533400Y623570D02*
X529590Y623570D01*
X529590Y646430D02*
X533400Y646430D01*
X527050Y643890D02*
X527050Y626110D01*
D11*
X570948Y619125D02*
X570948Y607695D01*
X570948Y619125D02*
X574123Y619125D01*
X574234Y619123D01*
X574344Y619117D01*
X574455Y619108D01*
X574565Y619094D01*
X574674Y619077D01*
X574783Y619056D01*
X574891Y619031D01*
X574998Y619002D01*
X575104Y618970D01*
X575209Y618934D01*
X575312Y618894D01*
X575414Y618851D01*
X575515Y618804D01*
X575614Y618753D01*
X575711Y618700D01*
X575805Y618643D01*
X575898Y618582D01*
X575989Y618519D01*
X576078Y618452D01*
X576164Y618382D01*
X576247Y618309D01*
X576329Y618234D01*
X576407Y618156D01*
X576482Y618074D01*
X576555Y617991D01*
X576625Y617905D01*
X576692Y617816D01*
X576755Y617725D01*
X576816Y617632D01*
X576873Y617537D01*
X576926Y617441D01*
X576977Y617342D01*
X577024Y617241D01*
X577067Y617139D01*
X577107Y617036D01*
X577143Y616931D01*
X577175Y616825D01*
X577204Y616718D01*
X577229Y616610D01*
X577250Y616501D01*
X577267Y616392D01*
X577281Y616282D01*
X577290Y616171D01*
X577296Y616061D01*
X577298Y615950D01*
X577296Y615839D01*
X577290Y615729D01*
X577281Y615618D01*
X577267Y615508D01*
X577250Y615399D01*
X577229Y615290D01*
X577204Y615182D01*
X577175Y615075D01*
X577143Y614969D01*
X577107Y614864D01*
X577067Y614761D01*
X577024Y614659D01*
X576977Y614558D01*
X576926Y614459D01*
X576873Y614363D01*
X576816Y614268D01*
X576755Y614175D01*
X576692Y614084D01*
X576625Y613995D01*
X576555Y613909D01*
X576482Y613826D01*
X576407Y613744D01*
X576329Y613666D01*
X576247Y613591D01*
X576164Y613518D01*
X576078Y613448D01*
X575989Y613381D01*
X575898Y613318D01*
X575805Y613257D01*
X575711Y613200D01*
X575614Y613147D01*
X575515Y613096D01*
X575414Y613049D01*
X575312Y613006D01*
X575209Y612966D01*
X575104Y612930D01*
X574998Y612898D01*
X574891Y612869D01*
X574783Y612844D01*
X574674Y612823D01*
X574565Y612806D01*
X574455Y612792D01*
X574344Y612783D01*
X574234Y612777D01*
X574123Y612775D01*
X570948Y612775D01*
X574758Y612775D02*
X577298Y607695D01*
X582295Y616585D02*
X585470Y619125D01*
X585470Y607695D01*
X582295Y607695D02*
X588645Y607695D01*
D15*
X522732Y635000D03*
X594868Y635000D03*
D10*
X590550Y461010D02*
X590548Y460910D01*
X590542Y460811D01*
X590532Y460711D01*
X590519Y460613D01*
X590501Y460514D01*
X590480Y460417D01*
X590455Y460321D01*
X590426Y460225D01*
X590393Y460131D01*
X590357Y460038D01*
X590317Y459947D01*
X590273Y459857D01*
X590226Y459769D01*
X590176Y459683D01*
X590122Y459599D01*
X590065Y459517D01*
X590005Y459438D01*
X589941Y459360D01*
X589875Y459286D01*
X589806Y459214D01*
X589734Y459145D01*
X589660Y459079D01*
X589582Y459015D01*
X589503Y458955D01*
X589421Y458898D01*
X589337Y458844D01*
X589251Y458794D01*
X589163Y458747D01*
X589073Y458703D01*
X588982Y458663D01*
X588889Y458627D01*
X588795Y458594D01*
X588699Y458565D01*
X588603Y458540D01*
X588506Y458519D01*
X588407Y458501D01*
X588309Y458488D01*
X588209Y458478D01*
X588110Y458472D01*
X588010Y458470D01*
X590550Y478790D02*
X590548Y478890D01*
X590542Y478989D01*
X590532Y479089D01*
X590519Y479187D01*
X590501Y479286D01*
X590480Y479383D01*
X590455Y479479D01*
X590426Y479575D01*
X590393Y479669D01*
X590357Y479762D01*
X590317Y479853D01*
X590273Y479943D01*
X590226Y480031D01*
X590176Y480117D01*
X590122Y480201D01*
X590065Y480283D01*
X590005Y480362D01*
X589941Y480440D01*
X589875Y480514D01*
X589806Y480586D01*
X589734Y480655D01*
X589660Y480721D01*
X589582Y480785D01*
X589503Y480845D01*
X589421Y480902D01*
X589337Y480956D01*
X589251Y481006D01*
X589163Y481053D01*
X589073Y481097D01*
X588982Y481137D01*
X588889Y481173D01*
X588795Y481206D01*
X588699Y481235D01*
X588603Y481260D01*
X588506Y481281D01*
X588407Y481299D01*
X588309Y481312D01*
X588209Y481322D01*
X588110Y481328D01*
X588010Y481330D01*
X529590Y481330D02*
X529490Y481328D01*
X529391Y481322D01*
X529291Y481312D01*
X529193Y481299D01*
X529094Y481281D01*
X528997Y481260D01*
X528901Y481235D01*
X528805Y481206D01*
X528711Y481173D01*
X528618Y481137D01*
X528527Y481097D01*
X528437Y481053D01*
X528349Y481006D01*
X528263Y480956D01*
X528179Y480902D01*
X528097Y480845D01*
X528018Y480785D01*
X527940Y480721D01*
X527866Y480655D01*
X527794Y480586D01*
X527725Y480514D01*
X527659Y480440D01*
X527595Y480362D01*
X527535Y480283D01*
X527478Y480201D01*
X527424Y480117D01*
X527374Y480031D01*
X527327Y479943D01*
X527283Y479853D01*
X527243Y479762D01*
X527207Y479669D01*
X527174Y479575D01*
X527145Y479479D01*
X527120Y479383D01*
X527099Y479286D01*
X527081Y479187D01*
X527068Y479089D01*
X527058Y478989D01*
X527052Y478890D01*
X527050Y478790D01*
X527050Y461010D02*
X527052Y460910D01*
X527058Y460811D01*
X527068Y460711D01*
X527081Y460613D01*
X527099Y460514D01*
X527120Y460417D01*
X527145Y460321D01*
X527174Y460225D01*
X527207Y460131D01*
X527243Y460038D01*
X527283Y459947D01*
X527327Y459857D01*
X527374Y459769D01*
X527424Y459683D01*
X527478Y459599D01*
X527535Y459517D01*
X527595Y459438D01*
X527659Y459360D01*
X527725Y459286D01*
X527794Y459214D01*
X527866Y459145D01*
X527940Y459079D01*
X528018Y459015D01*
X528097Y458955D01*
X528179Y458898D01*
X528263Y458844D01*
X528349Y458794D01*
X528437Y458747D01*
X528527Y458703D01*
X528618Y458663D01*
X528711Y458627D01*
X528805Y458594D01*
X528901Y458565D01*
X528997Y458540D01*
X529094Y458519D01*
X529193Y458501D01*
X529291Y458488D01*
X529391Y458478D01*
X529490Y458472D01*
X529590Y458470D01*
X590550Y461010D02*
X590550Y478790D01*
X588010Y458470D02*
X584200Y458470D01*
X582930Y459740D01*
X584200Y481330D02*
X588010Y481330D01*
X584200Y481330D02*
X582930Y480060D01*
X534670Y459740D02*
X533400Y458470D01*
X534670Y459740D02*
X582930Y459740D01*
X534670Y480060D02*
X533400Y481330D01*
X534670Y480060D02*
X582930Y480060D01*
X533400Y458470D02*
X529590Y458470D01*
X529590Y481330D02*
X533400Y481330D01*
X527050Y478790D02*
X527050Y461010D01*
D11*
X570948Y454025D02*
X570948Y442595D01*
X570948Y454025D02*
X574123Y454025D01*
X574234Y454023D01*
X574344Y454017D01*
X574455Y454008D01*
X574565Y453994D01*
X574674Y453977D01*
X574783Y453956D01*
X574891Y453931D01*
X574998Y453902D01*
X575104Y453870D01*
X575209Y453834D01*
X575312Y453794D01*
X575414Y453751D01*
X575515Y453704D01*
X575614Y453653D01*
X575711Y453600D01*
X575805Y453543D01*
X575898Y453482D01*
X575989Y453419D01*
X576078Y453352D01*
X576164Y453282D01*
X576247Y453209D01*
X576329Y453134D01*
X576407Y453056D01*
X576482Y452974D01*
X576555Y452891D01*
X576625Y452805D01*
X576692Y452716D01*
X576755Y452625D01*
X576816Y452532D01*
X576873Y452437D01*
X576926Y452341D01*
X576977Y452242D01*
X577024Y452141D01*
X577067Y452039D01*
X577107Y451936D01*
X577143Y451831D01*
X577175Y451725D01*
X577204Y451618D01*
X577229Y451510D01*
X577250Y451401D01*
X577267Y451292D01*
X577281Y451182D01*
X577290Y451071D01*
X577296Y450961D01*
X577298Y450850D01*
X577296Y450739D01*
X577290Y450629D01*
X577281Y450518D01*
X577267Y450408D01*
X577250Y450299D01*
X577229Y450190D01*
X577204Y450082D01*
X577175Y449975D01*
X577143Y449869D01*
X577107Y449764D01*
X577067Y449661D01*
X577024Y449559D01*
X576977Y449458D01*
X576926Y449359D01*
X576873Y449262D01*
X576816Y449168D01*
X576755Y449075D01*
X576692Y448984D01*
X576625Y448895D01*
X576555Y448809D01*
X576482Y448726D01*
X576407Y448644D01*
X576329Y448566D01*
X576247Y448491D01*
X576164Y448418D01*
X576078Y448348D01*
X575989Y448281D01*
X575898Y448218D01*
X575805Y448157D01*
X575711Y448100D01*
X575614Y448047D01*
X575515Y447996D01*
X575414Y447949D01*
X575312Y447906D01*
X575209Y447866D01*
X575104Y447830D01*
X574998Y447798D01*
X574891Y447769D01*
X574783Y447744D01*
X574674Y447723D01*
X574565Y447706D01*
X574455Y447692D01*
X574344Y447683D01*
X574234Y447677D01*
X574123Y447675D01*
X570948Y447675D01*
X574758Y447675D02*
X577298Y442595D01*
X588646Y451168D02*
X588644Y451272D01*
X588638Y451377D01*
X588629Y451481D01*
X588616Y451584D01*
X588598Y451687D01*
X588578Y451789D01*
X588553Y451891D01*
X588525Y451991D01*
X588493Y452091D01*
X588457Y452189D01*
X588418Y452286D01*
X588376Y452381D01*
X588330Y452475D01*
X588280Y452567D01*
X588228Y452657D01*
X588172Y452745D01*
X588112Y452831D01*
X588050Y452915D01*
X587985Y452996D01*
X587917Y453075D01*
X587845Y453152D01*
X587772Y453225D01*
X587695Y453297D01*
X587616Y453365D01*
X587535Y453430D01*
X587451Y453492D01*
X587365Y453552D01*
X587277Y453608D01*
X587187Y453660D01*
X587095Y453710D01*
X587001Y453756D01*
X586906Y453798D01*
X586809Y453837D01*
X586711Y453873D01*
X586611Y453905D01*
X586511Y453933D01*
X586409Y453958D01*
X586307Y453978D01*
X586204Y453996D01*
X586101Y454009D01*
X585997Y454018D01*
X585892Y454024D01*
X585788Y454026D01*
X585788Y454025D02*
X585670Y454023D01*
X585551Y454017D01*
X585433Y454008D01*
X585316Y453995D01*
X585199Y453977D01*
X585082Y453957D01*
X584966Y453932D01*
X584851Y453904D01*
X584738Y453871D01*
X584625Y453836D01*
X584513Y453796D01*
X584403Y453754D01*
X584294Y453707D01*
X584186Y453657D01*
X584081Y453604D01*
X583977Y453547D01*
X583875Y453487D01*
X583775Y453424D01*
X583677Y453357D01*
X583581Y453288D01*
X583488Y453215D01*
X583397Y453139D01*
X583308Y453061D01*
X583222Y452979D01*
X583139Y452895D01*
X583058Y452809D01*
X582981Y452719D01*
X582906Y452628D01*
X582834Y452534D01*
X582765Y452437D01*
X582700Y452339D01*
X582637Y452238D01*
X582578Y452135D01*
X582522Y452031D01*
X582470Y451925D01*
X582421Y451817D01*
X582376Y451708D01*
X582334Y451597D01*
X582296Y451485D01*
X587693Y448946D02*
X587769Y449021D01*
X587844Y449100D01*
X587915Y449181D01*
X587984Y449265D01*
X588049Y449351D01*
X588111Y449439D01*
X588171Y449529D01*
X588227Y449621D01*
X588280Y449716D01*
X588329Y449812D01*
X588375Y449910D01*
X588418Y450009D01*
X588457Y450110D01*
X588492Y450212D01*
X588524Y450315D01*
X588552Y450419D01*
X588577Y450524D01*
X588598Y450631D01*
X588615Y450737D01*
X588628Y450844D01*
X588637Y450952D01*
X588643Y451060D01*
X588645Y451168D01*
X587693Y448945D02*
X582295Y442595D01*
X588645Y442595D01*
D15*
X522732Y469900D03*
X594868Y469900D03*
D10*
X384810Y552450D02*
X384710Y552452D01*
X384611Y552458D01*
X384511Y552468D01*
X384413Y552481D01*
X384314Y552499D01*
X384217Y552520D01*
X384121Y552545D01*
X384025Y552574D01*
X383931Y552607D01*
X383838Y552643D01*
X383747Y552683D01*
X383657Y552727D01*
X383569Y552774D01*
X383483Y552824D01*
X383399Y552878D01*
X383317Y552935D01*
X383238Y552995D01*
X383160Y553059D01*
X383086Y553125D01*
X383014Y553194D01*
X382945Y553266D01*
X382879Y553340D01*
X382815Y553418D01*
X382755Y553497D01*
X382698Y553579D01*
X382644Y553663D01*
X382594Y553749D01*
X382547Y553837D01*
X382503Y553927D01*
X382463Y554018D01*
X382427Y554111D01*
X382394Y554205D01*
X382365Y554301D01*
X382340Y554397D01*
X382319Y554494D01*
X382301Y554593D01*
X382288Y554691D01*
X382278Y554791D01*
X382272Y554890D01*
X382270Y554990D01*
X402590Y552450D02*
X402690Y552452D01*
X402789Y552458D01*
X402889Y552468D01*
X402987Y552481D01*
X403086Y552499D01*
X403183Y552520D01*
X403279Y552545D01*
X403375Y552574D01*
X403469Y552607D01*
X403562Y552643D01*
X403653Y552683D01*
X403743Y552727D01*
X403831Y552774D01*
X403917Y552824D01*
X404001Y552878D01*
X404083Y552935D01*
X404162Y552995D01*
X404240Y553059D01*
X404314Y553125D01*
X404386Y553194D01*
X404455Y553266D01*
X404521Y553340D01*
X404585Y553418D01*
X404645Y553497D01*
X404702Y553579D01*
X404756Y553663D01*
X404806Y553749D01*
X404853Y553837D01*
X404897Y553927D01*
X404937Y554018D01*
X404973Y554111D01*
X405006Y554205D01*
X405035Y554301D01*
X405060Y554397D01*
X405081Y554494D01*
X405099Y554593D01*
X405112Y554691D01*
X405122Y554791D01*
X405128Y554890D01*
X405130Y554990D01*
X405130Y613410D02*
X405128Y613510D01*
X405122Y613609D01*
X405112Y613709D01*
X405099Y613807D01*
X405081Y613906D01*
X405060Y614003D01*
X405035Y614099D01*
X405006Y614195D01*
X404973Y614289D01*
X404937Y614382D01*
X404897Y614473D01*
X404853Y614563D01*
X404806Y614651D01*
X404756Y614737D01*
X404702Y614821D01*
X404645Y614903D01*
X404585Y614982D01*
X404521Y615060D01*
X404455Y615134D01*
X404386Y615206D01*
X404314Y615275D01*
X404240Y615341D01*
X404162Y615405D01*
X404083Y615465D01*
X404001Y615522D01*
X403917Y615576D01*
X403831Y615626D01*
X403743Y615673D01*
X403653Y615717D01*
X403562Y615757D01*
X403469Y615793D01*
X403375Y615826D01*
X403279Y615855D01*
X403183Y615880D01*
X403086Y615901D01*
X402987Y615919D01*
X402889Y615932D01*
X402789Y615942D01*
X402690Y615948D01*
X402590Y615950D01*
X384810Y615950D02*
X384710Y615948D01*
X384611Y615942D01*
X384511Y615932D01*
X384413Y615919D01*
X384314Y615901D01*
X384217Y615880D01*
X384121Y615855D01*
X384025Y615826D01*
X383931Y615793D01*
X383838Y615757D01*
X383747Y615717D01*
X383657Y615673D01*
X383569Y615626D01*
X383483Y615576D01*
X383399Y615522D01*
X383317Y615465D01*
X383238Y615405D01*
X383160Y615341D01*
X383086Y615275D01*
X383014Y615206D01*
X382945Y615134D01*
X382879Y615060D01*
X382815Y614982D01*
X382755Y614903D01*
X382698Y614821D01*
X382644Y614737D01*
X382594Y614651D01*
X382547Y614563D01*
X382503Y614473D01*
X382463Y614382D01*
X382427Y614289D01*
X382394Y614195D01*
X382365Y614099D01*
X382340Y614003D01*
X382319Y613906D01*
X382301Y613807D01*
X382288Y613709D01*
X382278Y613609D01*
X382272Y613510D01*
X382270Y613410D01*
X384810Y552450D02*
X402590Y552450D01*
X382270Y554990D02*
X382270Y558800D01*
X383540Y560070D01*
X405130Y558800D02*
X405130Y554990D01*
X405130Y558800D02*
X403860Y560070D01*
X383540Y608330D02*
X382270Y609600D01*
X383540Y608330D02*
X383540Y560070D01*
X403860Y608330D02*
X405130Y609600D01*
X403860Y608330D02*
X403860Y560070D01*
X382270Y609600D02*
X382270Y613410D01*
X405130Y613410D02*
X405130Y609600D01*
X402590Y615950D02*
X384810Y615950D01*
D11*
X377825Y554355D02*
X366395Y554355D01*
X366395Y557530D01*
X366397Y557641D01*
X366403Y557751D01*
X366412Y557862D01*
X366426Y557972D01*
X366443Y558081D01*
X366464Y558190D01*
X366489Y558298D01*
X366518Y558405D01*
X366550Y558511D01*
X366586Y558616D01*
X366626Y558719D01*
X366669Y558821D01*
X366716Y558922D01*
X366767Y559021D01*
X366820Y559118D01*
X366877Y559212D01*
X366938Y559305D01*
X367001Y559396D01*
X367068Y559485D01*
X367138Y559571D01*
X367211Y559654D01*
X367286Y559736D01*
X367364Y559814D01*
X367446Y559889D01*
X367529Y559962D01*
X367615Y560032D01*
X367704Y560099D01*
X367795Y560162D01*
X367888Y560223D01*
X367983Y560280D01*
X368079Y560333D01*
X368178Y560384D01*
X368279Y560431D01*
X368381Y560474D01*
X368484Y560514D01*
X368589Y560550D01*
X368695Y560582D01*
X368802Y560611D01*
X368910Y560636D01*
X369019Y560657D01*
X369128Y560674D01*
X369238Y560688D01*
X369349Y560697D01*
X369459Y560703D01*
X369570Y560705D01*
X369681Y560703D01*
X369791Y560697D01*
X369902Y560688D01*
X370012Y560674D01*
X370121Y560657D01*
X370230Y560636D01*
X370338Y560611D01*
X370445Y560582D01*
X370551Y560550D01*
X370656Y560514D01*
X370759Y560474D01*
X370861Y560431D01*
X370962Y560384D01*
X371061Y560333D01*
X371158Y560280D01*
X371252Y560223D01*
X371345Y560162D01*
X371436Y560099D01*
X371525Y560032D01*
X371611Y559962D01*
X371694Y559889D01*
X371776Y559814D01*
X371854Y559736D01*
X371929Y559654D01*
X372002Y559571D01*
X372072Y559485D01*
X372139Y559396D01*
X372202Y559305D01*
X372263Y559212D01*
X372320Y559118D01*
X372373Y559021D01*
X372424Y558922D01*
X372471Y558821D01*
X372514Y558719D01*
X372554Y558616D01*
X372590Y558511D01*
X372622Y558405D01*
X372651Y558298D01*
X372676Y558190D01*
X372697Y558081D01*
X372714Y557972D01*
X372728Y557862D01*
X372737Y557751D01*
X372743Y557641D01*
X372745Y557530D01*
X372745Y554355D01*
X372745Y558165D02*
X377825Y560705D01*
X377825Y565702D02*
X377825Y568877D01*
X377823Y568988D01*
X377817Y569098D01*
X377808Y569209D01*
X377794Y569319D01*
X377777Y569428D01*
X377756Y569537D01*
X377731Y569645D01*
X377702Y569752D01*
X377670Y569858D01*
X377634Y569963D01*
X377594Y570066D01*
X377551Y570168D01*
X377504Y570269D01*
X377453Y570368D01*
X377400Y570465D01*
X377343Y570559D01*
X377282Y570652D01*
X377219Y570743D01*
X377152Y570832D01*
X377082Y570918D01*
X377009Y571001D01*
X376934Y571083D01*
X376856Y571161D01*
X376774Y571236D01*
X376691Y571309D01*
X376605Y571379D01*
X376516Y571446D01*
X376425Y571509D01*
X376332Y571570D01*
X376238Y571627D01*
X376141Y571680D01*
X376042Y571731D01*
X375941Y571778D01*
X375839Y571821D01*
X375736Y571861D01*
X375631Y571897D01*
X375525Y571929D01*
X375418Y571958D01*
X375310Y571983D01*
X375201Y572004D01*
X375092Y572021D01*
X374982Y572035D01*
X374871Y572044D01*
X374761Y572050D01*
X374650Y572052D01*
X374539Y572050D01*
X374429Y572044D01*
X374318Y572035D01*
X374208Y572021D01*
X374099Y572004D01*
X373990Y571983D01*
X373882Y571958D01*
X373775Y571929D01*
X373669Y571897D01*
X373564Y571861D01*
X373461Y571821D01*
X373359Y571778D01*
X373258Y571731D01*
X373159Y571680D01*
X373063Y571627D01*
X372968Y571570D01*
X372875Y571509D01*
X372784Y571446D01*
X372695Y571379D01*
X372609Y571309D01*
X372526Y571236D01*
X372444Y571161D01*
X372366Y571083D01*
X372291Y571001D01*
X372218Y570918D01*
X372148Y570832D01*
X372081Y570743D01*
X372018Y570652D01*
X371957Y570559D01*
X371900Y570465D01*
X371847Y570368D01*
X371796Y570269D01*
X371749Y570168D01*
X371706Y570066D01*
X371666Y569963D01*
X371630Y569858D01*
X371598Y569752D01*
X371569Y569645D01*
X371544Y569537D01*
X371523Y569428D01*
X371506Y569319D01*
X371492Y569209D01*
X371483Y569098D01*
X371477Y568988D01*
X371475Y568877D01*
X366395Y569512D02*
X366395Y565702D01*
X366395Y569512D02*
X366397Y569612D01*
X366403Y569711D01*
X366413Y569811D01*
X366426Y569909D01*
X366444Y570008D01*
X366465Y570105D01*
X366490Y570201D01*
X366519Y570297D01*
X366552Y570391D01*
X366588Y570484D01*
X366628Y570575D01*
X366672Y570665D01*
X366719Y570753D01*
X366769Y570839D01*
X366823Y570923D01*
X366880Y571005D01*
X366940Y571084D01*
X367004Y571162D01*
X367070Y571236D01*
X367139Y571308D01*
X367211Y571377D01*
X367285Y571443D01*
X367363Y571507D01*
X367442Y571567D01*
X367524Y571624D01*
X367608Y571678D01*
X367694Y571728D01*
X367782Y571775D01*
X367872Y571819D01*
X367963Y571859D01*
X368056Y571895D01*
X368150Y571928D01*
X368246Y571957D01*
X368342Y571982D01*
X368439Y572003D01*
X368538Y572021D01*
X368636Y572034D01*
X368736Y572044D01*
X368835Y572050D01*
X368935Y572052D01*
X369035Y572050D01*
X369134Y572044D01*
X369234Y572034D01*
X369332Y572021D01*
X369431Y572003D01*
X369528Y571982D01*
X369624Y571957D01*
X369720Y571928D01*
X369814Y571895D01*
X369907Y571859D01*
X369998Y571819D01*
X370088Y571775D01*
X370176Y571728D01*
X370262Y571678D01*
X370346Y571624D01*
X370428Y571567D01*
X370507Y571507D01*
X370585Y571443D01*
X370659Y571377D01*
X370731Y571308D01*
X370800Y571236D01*
X370866Y571162D01*
X370930Y571084D01*
X370990Y571005D01*
X371047Y570923D01*
X371101Y570839D01*
X371151Y570753D01*
X371198Y570665D01*
X371242Y570575D01*
X371282Y570484D01*
X371318Y570391D01*
X371351Y570297D01*
X371380Y570201D01*
X371405Y570105D01*
X371426Y570008D01*
X371444Y569909D01*
X371457Y569811D01*
X371467Y569711D01*
X371473Y569612D01*
X371475Y569512D01*
X371475Y566972D01*
D16*
X393700Y620268D03*
X393700Y548132D03*
D10*
X382270Y427990D02*
X382272Y427890D01*
X382278Y427791D01*
X382288Y427691D01*
X382301Y427593D01*
X382319Y427494D01*
X382340Y427397D01*
X382365Y427301D01*
X382394Y427205D01*
X382427Y427111D01*
X382463Y427018D01*
X382503Y426927D01*
X382547Y426837D01*
X382594Y426749D01*
X382644Y426663D01*
X382698Y426579D01*
X382755Y426497D01*
X382815Y426418D01*
X382879Y426340D01*
X382945Y426266D01*
X383014Y426194D01*
X383086Y426125D01*
X383160Y426059D01*
X383238Y425995D01*
X383317Y425935D01*
X383399Y425878D01*
X383483Y425824D01*
X383569Y425774D01*
X383657Y425727D01*
X383747Y425683D01*
X383838Y425643D01*
X383931Y425607D01*
X384025Y425574D01*
X384121Y425545D01*
X384217Y425520D01*
X384314Y425499D01*
X384413Y425481D01*
X384511Y425468D01*
X384611Y425458D01*
X384710Y425452D01*
X384810Y425450D01*
X402590Y425450D02*
X402690Y425452D01*
X402789Y425458D01*
X402889Y425468D01*
X402987Y425481D01*
X403086Y425499D01*
X403183Y425520D01*
X403279Y425545D01*
X403375Y425574D01*
X403469Y425607D01*
X403562Y425643D01*
X403653Y425683D01*
X403743Y425727D01*
X403831Y425774D01*
X403917Y425824D01*
X404001Y425878D01*
X404083Y425935D01*
X404162Y425995D01*
X404240Y426059D01*
X404314Y426125D01*
X404386Y426194D01*
X404455Y426266D01*
X404521Y426340D01*
X404585Y426418D01*
X404645Y426497D01*
X404702Y426579D01*
X404756Y426663D01*
X404806Y426749D01*
X404853Y426837D01*
X404897Y426927D01*
X404937Y427018D01*
X404973Y427111D01*
X405006Y427205D01*
X405035Y427301D01*
X405060Y427397D01*
X405081Y427494D01*
X405099Y427593D01*
X405112Y427691D01*
X405122Y427791D01*
X405128Y427890D01*
X405130Y427990D01*
X405130Y486410D02*
X405128Y486510D01*
X405122Y486609D01*
X405112Y486709D01*
X405099Y486807D01*
X405081Y486906D01*
X405060Y487003D01*
X405035Y487099D01*
X405006Y487195D01*
X404973Y487289D01*
X404937Y487382D01*
X404897Y487473D01*
X404853Y487563D01*
X404806Y487651D01*
X404756Y487737D01*
X404702Y487821D01*
X404645Y487903D01*
X404585Y487982D01*
X404521Y488060D01*
X404455Y488134D01*
X404386Y488206D01*
X404314Y488275D01*
X404240Y488341D01*
X404162Y488405D01*
X404083Y488465D01*
X404001Y488522D01*
X403917Y488576D01*
X403831Y488626D01*
X403743Y488673D01*
X403653Y488717D01*
X403562Y488757D01*
X403469Y488793D01*
X403375Y488826D01*
X403279Y488855D01*
X403183Y488880D01*
X403086Y488901D01*
X402987Y488919D01*
X402889Y488932D01*
X402789Y488942D01*
X402690Y488948D01*
X402590Y488950D01*
X384810Y488950D02*
X384710Y488948D01*
X384611Y488942D01*
X384511Y488932D01*
X384413Y488919D01*
X384314Y488901D01*
X384217Y488880D01*
X384121Y488855D01*
X384025Y488826D01*
X383931Y488793D01*
X383838Y488757D01*
X383747Y488717D01*
X383657Y488673D01*
X383569Y488626D01*
X383483Y488576D01*
X383399Y488522D01*
X383317Y488465D01*
X383238Y488405D01*
X383160Y488341D01*
X383086Y488275D01*
X383014Y488206D01*
X382945Y488134D01*
X382879Y488060D01*
X382815Y487982D01*
X382755Y487903D01*
X382698Y487821D01*
X382644Y487737D01*
X382594Y487651D01*
X382547Y487563D01*
X382503Y487473D01*
X382463Y487382D01*
X382427Y487289D01*
X382394Y487195D01*
X382365Y487099D01*
X382340Y487003D01*
X382319Y486906D01*
X382301Y486807D01*
X382288Y486709D01*
X382278Y486609D01*
X382272Y486510D01*
X382270Y486410D01*
X384810Y425450D02*
X402590Y425450D01*
X382270Y427990D02*
X382270Y431800D01*
X383540Y433070D01*
X405130Y431800D02*
X405130Y427990D01*
X405130Y431800D02*
X403860Y433070D01*
X383540Y481330D02*
X382270Y482600D01*
X383540Y481330D02*
X383540Y433070D01*
X403860Y481330D02*
X405130Y482600D01*
X403860Y481330D02*
X403860Y433070D01*
X382270Y482600D02*
X382270Y486410D01*
X405130Y486410D02*
X405130Y482600D01*
X402590Y488950D02*
X384810Y488950D01*
D11*
X377825Y427355D02*
X366395Y427355D01*
X366395Y430530D01*
X366397Y430641D01*
X366403Y430751D01*
X366412Y430862D01*
X366426Y430972D01*
X366443Y431081D01*
X366464Y431190D01*
X366489Y431298D01*
X366518Y431405D01*
X366550Y431511D01*
X366586Y431616D01*
X366626Y431719D01*
X366669Y431821D01*
X366716Y431922D01*
X366767Y432021D01*
X366820Y432118D01*
X366877Y432212D01*
X366938Y432305D01*
X367001Y432396D01*
X367068Y432485D01*
X367138Y432571D01*
X367211Y432654D01*
X367286Y432736D01*
X367364Y432814D01*
X367446Y432889D01*
X367529Y432962D01*
X367615Y433032D01*
X367704Y433099D01*
X367795Y433162D01*
X367888Y433223D01*
X367983Y433280D01*
X368079Y433333D01*
X368178Y433384D01*
X368279Y433431D01*
X368381Y433474D01*
X368484Y433514D01*
X368589Y433550D01*
X368695Y433582D01*
X368802Y433611D01*
X368910Y433636D01*
X369019Y433657D01*
X369128Y433674D01*
X369238Y433688D01*
X369349Y433697D01*
X369459Y433703D01*
X369570Y433705D01*
X369681Y433703D01*
X369791Y433697D01*
X369902Y433688D01*
X370012Y433674D01*
X370121Y433657D01*
X370230Y433636D01*
X370338Y433611D01*
X370445Y433582D01*
X370551Y433550D01*
X370656Y433514D01*
X370759Y433474D01*
X370861Y433431D01*
X370962Y433384D01*
X371061Y433333D01*
X371158Y433280D01*
X371252Y433223D01*
X371345Y433162D01*
X371436Y433099D01*
X371525Y433032D01*
X371611Y432962D01*
X371694Y432889D01*
X371776Y432814D01*
X371854Y432736D01*
X371929Y432654D01*
X372002Y432571D01*
X372072Y432485D01*
X372139Y432396D01*
X372202Y432305D01*
X372263Y432212D01*
X372320Y432118D01*
X372373Y432021D01*
X372424Y431922D01*
X372471Y431821D01*
X372514Y431719D01*
X372554Y431616D01*
X372590Y431511D01*
X372622Y431405D01*
X372651Y431298D01*
X372676Y431190D01*
X372697Y431081D01*
X372714Y430972D01*
X372728Y430862D01*
X372737Y430751D01*
X372743Y430641D01*
X372745Y430530D01*
X372745Y427355D01*
X372745Y431165D02*
X377825Y433705D01*
X375285Y438702D02*
X366395Y441242D01*
X375285Y438702D02*
X375285Y445052D01*
X372745Y443147D02*
X377825Y443147D01*
D16*
X393700Y493268D03*
X393700Y421132D03*
M02*
